<?xml version="1.0" encoding="UTF-8"?>
<svg id="Calque_1" data-name="Calque 1" xmlns="http://www.w3.org/2000/svg" viewBox="0 0 171.77 248.75">
  <defs>
    <style>
      .cls-1 {
        fill: #fff;
      }
    </style>
  </defs>
  <g>
    <path class="cls-1" d="M12.48,70.38h7.02v1.68h-10.48v-.31c1.53-1.33,3.16-3.16,4.89-5.49.42-.56.8-1.13,1.14-1.69s.63-1.17.86-1.8.35-1.23.35-1.78c0-.99-.32-1.79-.97-2.39s-1.46-.9-2.46-.9c-1.07,0-2.2.6-3.41,1.8v-2.16c1.37-.94,2.69-1.42,3.98-1.42.89,0,1.7.21,2.43.64s1.3,1,1.7,1.74.61,1.55.61,2.45c0,.78-.18,1.61-.54,2.5s-.82,1.75-1.39,2.59-1.17,1.64-1.81,2.4-1.29,1.47-1.95,2.14Z"/>
    <path class="cls-1" d="M31.39,57.68v5.25h5.95v1.6h-5.95v7.53h-2.01v-15.99h8.51v1.6h-6.5Z"/>
    <path class="cls-1" d="M48.39,66.4h-7.62c.02.79.16,1.5.43,2.14.27.64.68,1.16,1.23,1.54.55.38,1.22.57,2.02.57,1.22,0,2.46-.38,3.72-1.15v1.51c-1.27.81-2.62,1.22-4.05,1.22-1.07,0-2-.27-2.77-.8-.78-.53-1.37-1.25-1.77-2.15s-.61-1.87-.61-2.92c0-.87.21-1.71.62-2.52.42-.81.99-1.47,1.72-1.97.73-.5,1.53-.75,2.4-.75s1.68.21,2.44.64c.76.43,1.33,1.02,1.71,1.78.35.68.53,1.64.53,2.87ZM46.66,65.3c-.05-.84-.32-1.52-.81-2.03s-1.16-.77-2-.77c-.5,0-.97.13-1.39.39s-.77.6-1.05,1.03-.44.89-.51,1.38h5.75Z"/>
    <path class="cls-1" d="M50.81,71.75v-15.73h1.77v6.52c1.02-.96,2.02-1.44,3-1.44.71,0,1.38.14,2,.43s1.15.68,1.59,1.18.79,1.08,1.03,1.73.37,1.34.37,2.03-.12,1.4-.36,2.1-.58,1.3-1.02,1.81c-.49.56-1.11,1.01-1.86,1.34s-1.5.51-2.24.51c-.66,0-1.28-.04-1.85-.11s-1.38-.2-2.42-.37ZM52.58,70.27c.66.25,1.32.38,1.97.38.78,0,1.49-.17,2.12-.51.63-.34,1.13-.82,1.49-1.43.36-.61.54-1.32.54-2.11,0-.74-.14-1.41-.41-2s-.68-1.06-1.21-1.4c-.54-.34-1.18-.51-1.93-.51-.44,0-.86.11-1.24.34-.38.22-.82.55-1.32.96v6.28Z"/>
    <path class="cls-1" d="M63.03,72.06v-10.81h1.8l-.05,2.73.46-.63c.55-.74,1.03-1.3,1.46-1.68s.95-.57,1.56-.57c.85,0,1.63.4,2.35,1.2l-1.01,1.7c-.6-.72-1.2-1.08-1.82-1.08-.48,0-.95.21-1.4.64s-.82.95-1.1,1.56-.42,1.14-.42,1.59v5.34h-1.82Z"/>
    <path class="cls-1" d="M80.94,61.27v10.79h-1.77l.05-1.87c-.39.61-.88,1.1-1.47,1.47s-1.22.56-1.91.56c-.8,0-1.48-.19-2.03-.58s-.96-.9-1.23-1.55-.41-1.36-.41-2.14v-6.69h1.77v6.11c0,.93.13,1.63.39,2.09.2.34.48.6.83.79s.73.28,1.13.28c.58,0,1.13-.16,1.66-.48s.93-.73,1.21-1.25v-7.55h1.77Z"/>
    <path class="cls-1" d="M84.15,64.34v-1.75c1.29-.99,2.51-1.49,3.67-1.49.59,0,1.15.1,1.68.31s.96.53,1.27.96c.38.52.57,1.25.57,2.18v5.4c0,.23.03.41.08.53s.18.18.38.18c.11,0,.24-.04.38-.12s.27-.18.4-.28.21-.18.25-.21l-.22,1.36c-.76.53-1.4.8-1.94.8s-.87-.38-.93-1.15c-1.07.78-2.09,1.18-3.04,1.18-.84,0-1.57-.25-2.17-.76s-.9-1.17-.9-2c0-.57.17-1.11.5-1.62s.77-.9,1.29-1.16c.53-.27,1.09-.48,1.66-.61s1.26-.24,2.05-.32l.48-.08v-.88c0-.67-.14-1.16-.43-1.49-.37-.42-.89-.63-1.56-.63-1.15,0-2.31.55-3.48,1.66ZM89.54,66.69c-1.09.1-1.91.26-2.45.48-.49.19-.91.48-1.26.87s-.53.83-.53,1.31c0,.51.18.92.54,1.22s.8.46,1.33.46c.76,0,1.56-.3,2.38-.89v-3.45Z"/>
    <path class="cls-1" d="M94.6,72.06v-10.81h1.8l-.05,2.73.46-.63c.55-.74,1.03-1.3,1.46-1.68s.95-.57,1.56-.57c.85,0,1.63.4,2.35,1.2l-1.01,1.7c-.6-.72-1.2-1.08-1.82-1.08-.48,0-.95.21-1.4.64s-.82.95-1.1,1.56-.42,1.14-.42,1.59v5.34h-1.82Z"/>
    <path class="cls-1" d="M113.25,61.25l-8.56,16.52h-1.82l4.15-7.98-4.08-8.53h1.9l3.16,6.59,3.5-6.59h1.75Z"/>
    <path class="cls-1" d="M124.28,70.38h7.02v1.68h-10.48v-.31c1.53-1.33,3.16-3.16,4.89-5.49.42-.56.8-1.13,1.14-1.69s.63-1.17.86-1.8.35-1.23.35-1.78c0-.99-.32-1.79-.97-2.39s-1.46-.9-2.46-.9c-1.07,0-2.2.6-3.41,1.8v-2.16c1.37-.94,2.69-1.42,3.98-1.42.89,0,1.7.21,2.43.64s1.3,1,1.7,1.74.61,1.55.61,2.45c0,.78-.18,1.61-.54,2.5s-.82,1.75-1.39,2.59-1.17,1.64-1.81,2.4-1.29,1.47-1.95,2.14Z"/>
    <path class="cls-1" d="M131.99,63.79c0-1.18.16-2.31.48-3.39s.82-2.02,1.51-2.81c.45-.53.98-.94,1.6-1.23s1.27-.43,1.95-.43c.96,0,1.79.24,2.51.72s1.29,1.1,1.74,1.88.77,1.63.98,2.55.32,1.83.32,2.72c0,2.6-.54,4.69-1.61,6.26-.45.66-1.03,1.19-1.72,1.59s-1.43.59-2.21.59-1.52-.2-2.21-.59-1.27-.92-1.73-1.59c-1.07-1.57-1.61-3.65-1.61-6.26ZM133.91,63.77c0,2.06.31,3.7.94,4.91.28.55.66,1.01,1.14,1.37s1.01.55,1.59.55,1.09-.18,1.57-.54.86-.82,1.14-1.38c.64-1.24.96-2.88.96-4.91,0-.87-.12-1.78-.35-2.73s-.63-1.77-1.18-2.46-1.26-1.02-2.14-1.02-1.59.34-2.14,1.02-.94,1.5-1.18,2.46-.35,1.86-.35,2.73Z"/>
    <path class="cls-1" d="M146.88,70.38h7.02v1.68h-10.48v-.31c1.53-1.33,3.16-3.16,4.89-5.49.42-.56.8-1.13,1.14-1.69s.63-1.17.86-1.8.35-1.23.35-1.78c0-.99-.32-1.79-.97-2.39s-1.46-.9-2.46-.9c-1.07,0-2.2.6-3.41,1.8v-2.16c1.37-.94,2.69-1.42,3.98-1.42.89,0,1.7.21,2.43.64s1.3,1,1.7,1.74.61,1.55.61,2.45c0,.78-.18,1.61-.54,2.5s-.82,1.75-1.39,2.59-1.17,1.64-1.81,2.4-1.29,1.47-1.95,2.14Z"/>
    <path class="cls-1" d="M162.49,55.93l1.36,1.39c-1.32.78-2.46,1.62-3.43,2.54-1.08,1.02-2.01,2.28-2.78,3.79.89-.43,1.69-.64,2.38-.64.83,0,1.59.19,2.28.58s1.23.92,1.63,1.61.59,1.44.59,2.27c0,1.35-.42,2.47-1.25,3.38-.86.93-2.03,1.39-3.5,1.39-.97,0-1.82-.25-2.55-.76-.73-.51-1.29-1.18-1.67-2.02s-.57-1.74-.57-2.69.16-1.88.47-2.82.73-1.82,1.26-2.65c.53-.82,1.12-1.57,1.78-2.25,1.01-1.05,2.34-2.09,4-3.12ZM157.05,65.45c-.07.48-.1.97-.1,1.48.07,1.01.35,1.84.85,2.51.49.66,1.22,1,2.18,1,.78,0,1.42-.3,1.91-.91.5-.6.74-1.31.74-2.12,0-.54-.14-1.03-.41-1.47-.27-.44-.64-.77-1.1-1.02-.46-.24-.96-.37-1.49-.37-.62,0-1.48.3-2.59.89Z"/>
  </g>
  <g>
    <path class="cls-1" d="M25.93,124.47c-.17,1.93.26,3.07.33,4.06.07,1.02-.55,2.27-.58,3.22-.02.94,1.24,6.69,7.29,9.93.52.28.28-.55.6-1.36.23-.58-.35-2.24-1.61-3.11-1.26-.87-1.67-1.51-2.96-1.22.16-.58.51-1.02,1.23-.86.73.16,1.29.91,1.76,1.36-.47-1.02-.91-3.32-.94-3.92-.41-.57-1.57-1.91-2.9-1.15.25-.67.98-1.26,1.64-.79.66.47,1.07.67,1.36.98-.09-.55.16-2.22.07-2.7-.09-.48-.47-1.21-.72-1.48-.25-.27-2.02-2.14-3.72-1.67.22-.51,1.23-.54,1.96-.26.72.29,1.35.6,1.8,1.02-.32-.66-1.35-3.05-1.1-4.34,0,0,1.29,3.36,1.6,3.83.13-.43.86-1.4,1.48-1.33-.63.69-1.17,1.93-1.04,2.44.12.52.5,3.69.47,3.91.38-.59,1.26-1.45,1.93-1.17-1.01.72-1.64,1.42-1.83,2.09-.19.67.19,2.72.44,3.31.32-.85.54-1.36,1.01-1.73.47-.36,1.07-.46,1.55-.32-.79.46-.82.49-1.23,1.17-.41.68-.73,1.66-.82,2.25.28.37,1.33,2.7,3.33,1.01,1.15-.97,1.38-2.37,1.27-3.29-.13-1-1.71-3.26-2.34-4.39-.63-1.13-.97-1.68-1.07-2.58-.07-.66-.03-3.12-.34-4-.5-1.18-2.09-3.24-3.82-3.51-2.79-.43-3.89,2.5-4.07,4.62Z"/>
    <path class="cls-1" d="M72.56,119.08c.25.13.44.08.55-.08.1-.16.23-.78.36-1.15.12-.37.76-1.76.76-1.76.3-.68,1.79-4.07,1.87-4.3.14.43.8,2.64,2.3,3.53,1.51.89,3.22,1.46,3.56,1.35.33-.11.37-.24.41-.41.04-.17-.36-.96-.86-1.43-.49-.47-2.19-2.12-2.33-2.25.4.1,5.05-.1,5.37-.8.33-.7.15-.74-.02-.85-.17-.11-.86-.4-1.67-.48-.81-.07-5.48-.5-5.66-.57.04-.18.27-.49.35-.65,0,0,.17-.5.17-.55,0-.05.07-.16.2-.17.13-.02.41-.36.43-.42.02-.06-.06-.36-.06-.36-.08-.05.02-.28-.04-.36-.05-.08-.24-.3-.36-.33l-.39-.19c-.1-.06-.42-.08-.51-.06-.1.02-.18.18-.29.22,0,0-.26.13-.3.2-.04.07-.09.49-.01.6.08.11.05.22,0,.26-.04.04-.29.5-.29.5-.06.18-.13.55-.24.7-.18-.07-3.68-3.18-4.29-3.72-.61-.54-1.3-.83-1.5-.88-.19-.05-.34-.15-.64.57-.29.72,2.73,4.22,3.08,4.45-.19-.01-2.65-.04-3.33-.08-.68-.04-1.54.22-1.64.36-.1.14-.17.26-.02.58.14.32,1.74,1.17,3.42,1.66,1.68.49,3.75-.54,4.16-.74-.11.21-1.57,3.62-1.87,4.3,0,0-.58,1.42-.77,1.76-.18.34-.55.86-.6,1.05-.05.18-.13.41.32.45l.33.07Z"/>
    <g>
      <path class="cls-1" d="M79.17,139.88l-5.23,2.29-.2,5.89,5.15.18c.13-3.97.28-8.33.28-8.35Z"/>
      <path class="cls-1" d="M73.54,153.96l-.02.72c-.02.69,1.24,1.01,2.57,1.06,1.42.05,2.58-.54,2.6-1.15,0-.02.07-2.07.16-4.64l-5.15-.17-.14,4.19Z"/>
    </g>
    <path class="cls-1" d="M125.25,92.04c-.57,1.02-2.61,5.03.44,7.32,3.56,2.67,7.01.57,8.78-.98-2.05-2.06-6.98-5.12-9.22-6.34Z"/>
    <path class="cls-1" d="M124.62,91.7s-4.26,5.06-.05,8.65c4.91,4.18,10.09-.7,10.85-1.22.09.07,1.5,1.4,1.5,1.4-.95,1.87-2.5,3.05-5.03,4.02-3.25,1.24-9.21.84-11.57-3.39-2.27-4.1.04-8.65,2.88-10.23.33.16,1.42.77,1.42.77Z"/>
    <path class="cls-1" d="M39.83,113.34s-.13,1.54-.4,2.35c-.27.8-1.34,2.77-2.56,3.3.16-.75.78-4.81.75-5.17-.03-.35.02-.77-.06-.87-.08-.1-.27-.07-.38-.07-.11,0-.48-.18-.39-.48.08-.3.35-.42.51-.41.15,0,.25.05.37.07.13.02.14-.04.26-.16.11-.12,2.95-3.59,3.14-4.9.05-.21.17-.39.24-.37.07.02.52,1.36.52,1.88,0,.51-.72,2.32-1.15,2.72.27-.08.51-.11.74-.26.23-.15.68-.61.76-.71.08-.1.12-.07.17-.03.05.04.59,1.63.53,1.8-.06.17-.09.21-.21.23-.12.02-1.18.42-1.29.43.13.08.61.29.72.3.11,0,.14.09.11.15-.03.06-.48.98-.82,1.05-.34.08-1.34-.51-1.54-.84Z"/>
    <path class="cls-1" d="M45.28,119.42c-.49-1.81-.92-4.03-.61-5.54.31-2.95,1.77-5.35,3.06-8.2,0,0-.09,1.42-1.02,3.16,0,0-1.33,2.9-1.51,3.48-.2.58-.73,2.02-.24,3.63.2.67.56,1.83.91,2.96"/>
    <path class="cls-1" d="M46.07,118.8c-.1-1.85-.17-3.89-.02-4.45.16-1.11.4-2.52.49-3.02.09-.49.71-3.29,2.03-3.92-.42.51-1.29,1.83-1.46,2.42-.17.59-.61,1.74-.61,4.2,0,1.18.05,2.94.1,4.5"/>
    <path class="cls-1" d="M50.54,112.65c.42-1.11.98-2.54,1.18-3.04.14-.36.84-1.92,1.74-2.93.34-.38.71-.68,1.09-.8-.25.22-.64.62-1.01,1.04-.4.45-.78.93-.94,1.23-.3.58-.98,1.7-1.57,4.24-.26,1.1-.59,2.71-.89,4.2-.39,1.92-.12-2.89.4-3.95Z"/>
    <path class="cls-1" d="M48.93,117.4c-.76-2.26-2.14-6.42-2.16-7.11-.18-.75-.91-2.79-.34-6.42.02-.12.68-.75.68-.75-.02.12-.04.31-.07.53-.09.78-.2,2-.26,2.46-.07.59-.25,2.57-.17,2.92.08.35.09.77.19,1.03.09.26,1.28,3.01,1.54,3.66.16.4.68,2.02,1.08,3.27"/>
    <path class="cls-1" d="M48.25,117.86c-.09-2.63.32-6.14,2.52-9.02-.9,1.67-1.12,2.15-1.44,3.25-.31,1.1-.26,2.79-.29,3.1-.01.14-.12,1.15-.21,2.29"/>
    <path class="cls-1" d="M54.61,113.97c-.56-1.9-1.14-4.49-.79-6.18.01-.13.03-.26.05-.39.39-2.78.66-1.75.48-1.17-.1.27-.26.71-.36,1.28-.12.66-.15,1.48.11,2.35.28.93.85,2.77,1.31,4.21"/>
    <path class="cls-1" d="M55.56,113.73s0-.04.01-.06c.12-.95.33-1.99.64-3.05.57-1.93,1.71-3.53,1.24-2.44-.47,1.1-.68,2.83-.75,3.14,0,.03-.02.09-.05.18-.08.33-.26,1.04-.44,1.85"/>
    <path class="cls-1" d="M50.5,116.28c-.42-1.69-.73-3.61-.46-4.96.25-2.35,1.23-4.36,2.27-6.52.26-.55.74-.79.25.43-.13.33-.29.68-.48,1.05,0,0-1.34,2.9-1.51,3.48-.21.58-.73,2.02-.24,3.63.18.6.48,1.57.79,2.58"/>
    <path class="cls-1" d="M52.75,115.14c-.13-2.05-.31-5.31-.12-6.03.17-1.11.41-2.52.49-3.01,0-.05.02-.11.04-.2.17-.8.7-1.89.52-1.3-.09.31-.26.79-.4,1.54-.11.65-.21,1.51-.21,2.65,0,1.63.09,4.35.16,6.12"/>
    <path class="cls-1" d="M55.16,109.26c.38-1.46.92-2.13.61-1.03-.15.51-.21,1.14-.25,1.71-.04.66-.03,1.22-.05,1.39-.02.16-.1,1.45-.25,2.78-.09.8-1.2-.46-.07-4.84Z"/>
    <path class="cls-1" d="M49.49,116.86c-.5-1.85-1.18-4.43-1.24-4.99,0,0-1.21-4.78-1.24-5.21.28.72,1.77,4.37,2.44,7.87.17.88.32,1.56.45,2.1"/>
    <path class="cls-1" d="M47.59,117.93c.55-1.71,1.04-3.22,1.22-3.66.46-1.18,2.02-6.07,4.2-8.23-.72,1.06-1.83,3.46-2.22,4.4,0,0-1.86,4.91-2.17,5.94-.07.23-.23.71-.43,1.34"/>
    <path class="cls-1" d="M49.2,117.13c0-1.62.01-4.34.02-4.99,0-.94.13-3.98.13-4.32,0-.34.25-3.07.88-4.5.16-.35.33-.75.51-1.16.54-1.22.67-.48.31.49-.3.82-.59,1.61-.68,1.8-.2.41-.82,2.34-.87,2.67-.05.33.14,3.08.16,3.52.02.45.03,3.76.08,4.27.03.28,0,1.16.05,1.92.02.28-.58.71-.58.28Z"/>
    <path class="cls-1" d="M44.9,119.52c.18-.91.47-2.27.8-3.13.53-1.39,1.81-4.23,2.71-5.21-.58,1.08-1.92,4.65-2.26,5.44-.23.54-.74,1.97-1.04,2.91"/>
    <path class="cls-1" d="M50.7,116.16c.12-.33.25-.63.38-.89.67-1.38,2.38-4.28,3.37-5.22-.69,1.06-2.53,4.7-2.95,5.47-.04.08-.1.19-.16.31-.5,1.02-1.03,1.4-.64.32Z"/>
    <path class="cls-1" d="M46.89,118.3c.5-2.46,2.21-7.04,7.88-9.4.37-.15.73-.34,1.12-.49-.21.12-.58.32-1.03.59-1.76,1.03-4.93,3.04-6.11,5.04-.65,1.62-1.17,2.86-1.38,3.97-.13.62-.66,1.12-.49.29Z"/>
    <path class="cls-1" d="M46.36,112.91s.62-1.3,1.24-2.13c.63-.83,2.22-2.36,3.08-2.84-.39.43-1.63,1.66-2.12,2.17-.48.51-1.67,2.1-1.87,2.37-.2.27-.33.43-.33.43Z"/>
    <path class="cls-1" d="M153.89,128.7c-.04-.56-.56-.98-1.17-.94l-8.82.55-.1-1.62-4.71.29.1,1.62-1.25.08c-.61.04-1.08.52-1.05,1.08l.58,9.14c.04.56.56.98,1.18.94l14.78-.91c.61-.04,1.08-.52,1.05-1.09l-.58-9.14ZM142.68,127.86l.11,1.77-2.34.14-.11-1.77,2.34-.14ZM143.89,137.82c-2.23.14-4.13-1.4-4.26-3.43-.13-2.03,1.57-3.78,3.79-3.92,2.22-.13,4.12,1.4,4.25,3.43.13,2.03-1.57,3.79-3.79,3.92ZM151.56,131.37c-.67.04-1.24-.42-1.27-1.03-.04-.61.47-1.14,1.14-1.18.67-.04,1.24.42,1.28,1.03.04.61-.47,1.13-1.14,1.18Z"/>
    <path class="cls-1" d="M146.32,134.12c.09,1.35-1.04,2.51-2.52,2.6-1.47.09-2.74-.93-2.82-2.27-.08-1.35,1.04-2.51,2.51-2.6,1.47-.09,2.74.92,2.82,2.27Z"/>
    <g>
      <polygon class="cls-1" points="90.46 154.81 89.88 154.51 91.09 152.27 91.66 152.57 90.46 154.81"/>
      <path class="cls-1" d="M90.76,158.54s-1.34.25-2.5-.35c-1.16-.61-1.71-1.84-1.71-1.84.99-1.88,2.74-2.91,3.91-2.3,1.16.6,1.3,2.62.31,4.5Z"/>
      <path class="cls-1" d="M91.76,159.44c.05.08-1.79,1.85-4.35.36-2.26-1.32-2.31-3.76-2.17-3.75.14.01.89,1.99,2.69,2.93,1.8.94,3.78.38,3.83.46Z"/>
    </g>
    <path class="cls-1" d="M133.42,140.91c-.35-.79-1.84-.6-2.11-1.41-.27-.8,1.03-1.28.78-2.03-.38-1.1-1.55-.65-1.75-1.32-.2-.67,1.45-2.18.59-3.12-.86-.94-2.09.2-2.45.6-.96,1.06-4.25,4.11-5,4.57-1.24.76-3.59,1.9-4.18-.02-.33-1.07-.59-2.02-.95-2.43-.7-.78-1.26-.68-1.97-.59-.71.09-1.2.29-2,.73-1.15.63-4.58,3.7-3.96,4.8.61,1.1,2.21.1,2.76-.1.72-.26,1.41-.43,1.77.08.45.62-.02,3.71-.11,4.25-.09.57-.17,2.63.71,3.52,1.74,1.76,4.28,1.05,5.49.61,1.25-.45,10.44-5.29,11.21-5.88.65-.49,1.64-1.21,1.18-2.25ZM116.43,139.64c-.34.19-.77.08-.97-.26-.19-.34-.08-.77.26-.96.34-.19.78-.08.98.26.19.34.07.77-.27.96Z"/>
    <g>
      <path class="cls-1" d="M125.62,130.72c-.11.43-.21,1.47-.55,1.79-.34.32-1.12.76-1.91.37-.78-.4-.96-1.27-.61-1.59.34-.32,2.03-2.47,2.15-2.59.12-.12.2-.37.07-.45s-.16-.21-.5.02c-.33.22-2.84,1.91-3.15,2.19-.31.27-2.11,1.26-2.93.85-.83-.41-1.28-1.02-1.37-2.26-.09-1.24-.42-4.13.21-5.47.63-1.33,2.07-1.59,2.68-1.31.6.28,4.19,2.48,4.63,2.82.43.34,1.27.59,1.71.43.45-.17,1.1-.87,1.42-1.41.32-.54,2.35-3.56,2.84-3.87.5-.31,1.96-.92,2.79.74.83,1.65.73,4.94.65,5.36-.08.42-1.3,1.76-2.09,1.54-.79-.22-2.45-.6-2.62-.18-.22.52,2,.75,2.24.83.24.08.78.49.6,1.07-.18.58-.14.48-.29.78-.14.3-1.24,1.58-1.86,1.05-.62-.54-2.17-1.98-2.43-2.26-.26-.28-1.01-.13-1.25.39-.24.53-.43,1.15-.43,1.15Z"/>
      <path class="cls-1" d="M126.57,124.81c.1.41-.16.81-.57.91-.41.1-.82-.15-.92-.56-.1-.41.16-.81.57-.91.41-.1.82.15.92.56Z"/>
    </g>
    <path class="cls-1" d="M66.92,108.28s-.73,5.01-1.38,7.25c-.65,2.24-2.7,5.41-4.81,6.39-2.34,1.09-4.66,1.42-7.96.46-.39-.18-.92-.55-.84-1.03.09-.48.8-1.02,2.49-.87,1.69.16,2.7.7,3.04-.08.52-1.21-4.14-.98-3.53-2.42.59-1.38,4.51,1,4.95-.09.37-.93-3.46-1.04-2.87-2.26.54-1.12,3.45.85,3.93-.02.42-.76-1.94-.83-1.45-1.71.48-.87,2.29.44,2.71-.2.5-.79-1.32-.85-.93-1.65.25-.54,3.3-.32,4.13-.99.83-.68-.68-1.9-.71-2.46-.09-1.53,1.44-1.8,2.51-1.47.78.34.72,1.16.72,1.16Z"/>
    <path class="cls-1" d="M76.15,186.37c.29-.89,4.2-18.64,13.89-23.81.38-.22.5.07.24.33-.18.17-3.09,3.32-6.09,10.7-1.42,3.5-4.12,13.28-3.84,13.33.28.05,2.01-6.62,5.55-13.36,3.48-6.64,8.61-13.76,13.44-16.38.29-.22.58.06.36.24-.16.13-5.71,5.98-10.45,17.26-1.54,3.65-2.54,7.89-3.84,12.67-.05.16.04.23.12.03.13-.33,1.89-5.96,5.02-11.6,2.74-4.93,7.51-11.57,10.03-13,.34-.26.33.06.24.24-.06.12-5.08,7.72-7.82,14.11-1.5,3.48-2.58,10.06-2.38,10.03.21-.03,1.76-5.04,3.52-7.85,1.55-2.48,3.85-4.7,5.67-5.61,0,0,.94-.7.32.24-.37.57-2.43,2.73-3.87,6.53-.95,2.49-1.5,5.7-1.63,9.61,0,0-5.78.7-9.38.53-5.2-.25-9.46-1.05-9.95-1.06.25-1.07.24-.22.84-3.19Z"/>
    <path class="cls-1" d="M129.49,176.61c1.85-2.09,4.06-6.61,3.03-13.2.44-.1.83-.33.92-.97.08-.5-.27-3.61-.52-4.98-.25-1.37-1.04-4.79-1.22-5.14-.38-.71-1.05-.65-1.6-.66,0,0-.39-2.14-.57-2.92-.19-.79-.5-.71-.8-.66-.3.06-.52.34-.47.89.04.43.39,2.37.51,2.97-.44.2-1.31.46-1.22,1.31.09.85,1.45,8.72,1.62,9.27.18.55.33.94.69,1.12.36.19.79.11,1.09.06.11.31.83,8.39-2.93,11.96-1.13,1.08-1.83,1.48-2.5,1.89-2.33,1.43-3.05,1.56-4.9,2.51-1.41.53-1.57,1.14-1.48,1.56.09.42.58,1.04,1.46.63,1.35-.61,3.71-2.03,6.02-3.41,1.85-1.1,2.35-1.64,2.87-2.23Z"/>
    <path class="cls-1" d="M127.45,157.99c.14-.16.25-.25-.08-.3-.33-.05-5.86.99-6.58,1.12.08-.85-.56-7.12-.59-7.27-.02-.15.05-.45-.31-.08-.36.37-4.06,5.71-4.52,6.36-.64-.65-5.38-3.21-5.76-3.5-.38-.29-.25.02-.25.1,0,.27,0,.09,1.23,6.68,0,0-5,3.45-5.19,3.54-.19.1-.24.3-.07.36.16.07,4.64,1.38,5.77,1.71-.27.36-1.9,5.67-1.97,5.98-.07.31,0,.41.26.28.27-.13,5.85-4.67,6.36-5.15.19.56,3.07,5.35,3.17,5.58.09.19.28.12.29-.06.02-.24.96-6.54,1.05-7.03.54.43,5.4,1.49,5.8,1.62.14.05.33-.01.25-.17-.17-.35-3.47-4.98-3.73-5.25,1.01-.42,4.73-4.34,4.87-4.5ZM114.95,163.26c-.36.14-.73-.03-.85-.37-.12-.34.08-.73.42-.87.35-.13.73.03.85.38.12.34-.07.73-.42.87ZM116.48,165.26c-.35.14-.73-.03-.85-.37-.12-.34.07-.73.42-.87.35-.13.73.03.85.38.12.34-.07.73-.43.87ZM116.71,163.33c-.35.14-.74-.03-.85-.37-.12-.34.07-.73.42-.87.35-.14.73.03.85.37.12.34-.07.73-.42.87ZM117.25,161.63c-.35.14-.73-.03-.85-.37-.12-.34.08-.73.43-.87.35-.13.73.03.85.37.12.34-.07.73-.43.87ZM118.39,163.5c-.36.14-.73-.03-.85-.37-.12-.34.07-.73.43-.87.35-.14.74.03.85.37.12.34-.07.73-.42.87Z"/>
    <path class="cls-1" d="M109.46,162.16s-2.42-1.72-2.36-2.15c.06-.43,3.38-.8,3.87-.88-.06.48-3.06.92-3.06.92l2.11,1.84-.56.27Z"/>
    <path class="cls-1" d="M111.41,168.45s-2.82.81-3.08.48c-.26-.33,1.66-3.23,1.92-3.67.3.36-1.36,3.06-1.36,3.06l2.7-.49-.17.63Z"/>
    <path class="cls-1" d="M117.16,169.68s-1.09,2.88-1.49,2.9c-.41.03-1.44-3.33-1.62-3.82.45-.04,1.49,2.98,1.49,2.98l1.25-2.58.37.52Z"/>
    <path class="cls-1" d="M122.62,166.63s.87,2.95.56,3.25c-.31.3-3.11-1.62-3.53-1.88.33-.33,2.93,1.32,2.93,1.32l-.56-2.84.6.16Z"/>
    <path class="cls-1" d="M123.76,161.43s2.85.66,2.93,1.09c.09.42-2.88,2.06-3.3,2.32-.11-.47,2.54-2.05,2.54-2.05l-2.6-.89.43-.47Z"/>
    <path class="cls-1" d="M120.48,157s2.48-1.63,2.82-1.39c.34.24-.71,3.6-.85,4.1-.38-.25.48-3.34.48-3.34l-2.45,1.29v-.65Z"/>
    <path class="cls-1" d="M113.95,157.04s.6-3.27.98-3.37c.39-.1,1.89,3.33,2.13,3.82-.43.12-1.88-2.94-1.88-2.94l-.8,2.99-.44-.5Z"/>
    <path class="cls-1" d="M88.56,125.95c-.47-1.44-1.8-4.94-1.88-5.14-.07-.2-.12-.44.2-.77.25-.25.71-.71,1-1.01.29-.29.28-.6.24-.85-.04-.25-3.98-11.72-4.15-12.08-.63.19-.99.29-1.31.39-.63.18-.95-.54-.24-.8.71-.25,3.31-1.12,3.71-1.27.62-.23.93.5.31.78-.4.19-.97.39-1.35.53.11.3,4.57,11.88,4.57,11.88,0,0,.12.46.39.57.18.07.98.05,1.58.13.34.04.57.18.62.33.08.2,3.4,9.47,3.48,9.68.07.2.08.51-.14.58-.22.08-4.24,1.7-4.55,1.81-.31.11-.69.02-.79-.25-.09-.27-1.69-4.53-1.69-4.53Z"/>
    <path class="cls-1" d="M96.91,100.12c-.13-.04-4.49-.65-4.84-1.04-.37-.41-1.53-1.14-2.21-.64-.48.35-.69.62-.93.8-.24.18-.84.06-1.67.16.5-.41,2.16-3.98,1.87-4.14-.29-.16-1.66,2.26-1.96,2.16-.21-.07,1.41-3.14.89-3.41-.52-.26-2.82,4.94-3.15,4.82-.31-.11,1.21-4.66.47-4.7-.75-.04-1.45,4.56-1.82,4.54-.37-.02.01-3.29-.55-3.26-.56.03-.85,2.92-.85,2.92,0,0-.38.1-.96.06-.58-.04-.57-.09-1.02-.13-.44-.04-.68-.25-.73-.44-.05-.19-.12-1.57-.15-2.05-.02-.44-.02-.78-.04-1.2-.02-.38-.02-1,.41-2.14.43-1.14,1.11-7.91.64-7.98-.47-.07-1.06,2.77-1.16,3.31-.1.54.15,2.11-.18,2.11-.32,0-.24-.51-.28-.66-.04-.15,0-.55-.11-1.15-.12-.6.3-2.31.34-2.61.04-.34-.31-.85-.73-.74-.42.11-.74,2.35-.75,2.91-.01.56.45,1.78.35,2-.1.22-.27.07-.46-.04-.19-.11-.99-3.34-1.06-3.59-.07-.26-.23-.9-.71-.73-.48.17-.32,1.91-.07,2.55.26.64.06,1.18.32,1.54.26.37.22.38-.22.26-.44-.12-.77-1.23-1.05-1.51-.28-.28-.94-2.52-1.63-2.18-.69.34.65,2.64.86,2.97.22.34.89,1.07.76,1.18-.14.11-.41-.21-1-.57-.59-.36-2.21-2.62-2.72-1.77-.51.84,2.56,2.73,2.41,2.93-.15.2-3.4-1.42-3.6-.99-.17.35,1.66,1.18,1.5,1.31-.17.12-1.5-.55-1.68-.47-.18.09-.01.28.24.45.25.17.29.48.11.72-.18.24-.27.35-.26.7.01.35-.11.35-.31.52-.2.17-.31.36-.34.56-.03.2.43.4.63.51.2.11-.08.61-.43,1.14-.35.53-.68,2.78-.63,3.44.05.66.41,1.83.82,2.31.42.48-.13.74-.69.77-.57.03-3.15.75-3.26.93-.11.19-.45,1.07-.69,1.41-.24.34-.58.86-.91,1.02-.32.16-.76.2-1.23.29-.46.08-1.55.02-1.96.16-.45.16-1.25.8-1.35.91-.1.1-.18.4.16.43.34.03.32.12,1.36-.28,1.04-.39.53-.14,1.51-.47.97-.33.65-.17,1.61-.38.97-.21,1.6-.58,2.2-.93.6-.36,1.11-.57,1.91-.82.79-.25,1.6-.42,2.42-.56.82-.13,1.68.03,2.44.11.76.08,3.59-.31,4.53-.32.94,0,5.53-.54,6.78-.75,1.25-.21,6.77-1.74,7.15-1.84.38-.1,5.45-.18,5.64-.2.2-.01.17-.16.03-.2ZM90.59,99.89c-.19.05-.39-.07-.44-.27-.05-.2.06-.4.25-.45.19-.05.39.07.44.27.06.2-.06.41-.25.45Z"/>
    <path class="cls-1" d="M104.05,110.46c-1.29-2.97-2.83-2.73-3.26-2.67-.26.04-1.76,1.13-1.92,1.24-.16.11-.91.91-1.37,1.26-.27-.33-1.3-.86-1.41-1.05.02-.21,1.24-.74,1.55-1.11.19-.24.39-1.6.33-1.85.23-.09,2.76-1.26,2.99-1.45.23-.19,1.5-.93,1.75-1.18.25-.26.71-1.27-.43-2.94-1.14-1.67-2.37-1.53-2.75-1.45-.24.04-1.47,1.09-1.71,1.3-.24.21-2.34,2.49-2.52,2.67-.19.02-.33.09-.85.5-.52.41-3.04,3.08-3.21,3.23-.17.16-.23.64-.24.87-.01.22-.04.87-.08,1.11-.16.11-.52.39-.61.46-.1.07-.29.35-.32.52-.03.12-.07.43,0,.65.1.33.47,1.13.76,1.37.15.12.27.25.4.23.08-.01.29.51.14.69-.17.13-.6.37-.84.55-.22.16-.36.66-.34,1.14.02.47.4,1.07.83,1.44.43.37,1.21.38,1.53.14.16.17.19.18.43.45.26.29.95.41,1.2.35.24-.06,6.42-2.53,7.15-2.79,0,0,.73-.23.88-.34.16-.11,1.62-.89,1.62-.89.21-.12.78-.89.27-2.44ZM99.87,101.73c.54.76.54,1.63.54,1.63-.25-.2-.99-.75-1.38-1.28-.25-.35-.56-1.36-.56-1.36.71.11,1,.45,1.4,1.01ZM94.99,104.6s-.06-.15.04-.24c.03-.03,1.21-1.26,1.36-1.27.15,0,.27.32.23.43-.05.13-1.31,1.11-1.39,1.17-.08.06-.22-.06-.24-.09ZM97.49,111.67c-.08.16-1.79,1.28-1.89,1.35-.1.07-.27-.1-.3-.13-.03-.03-.06-.2.08-.31.04-.03,1.68-1.48,1.87-1.48.19,0,.31.45.25.57ZM101.36,112.34c-1.44-.87-1.84-2.64-1.89-3.11.59.09,1.13.41,1.6,1.27.61,1.11.28,1.84.28,1.84Z"/>
    <path class="cls-1" d="M93.9,130.97c.11.12-.85,1.69-2.69,1.41-1.94-.3-2.3-2.07-2.2-2.08.1-.02,1,1.18,2.35,1.37,1.35.19,2.44-.81,2.54-.69Z"/>
    <path class="cls-1" d="M127.43,177.11s5.33-7.09,9.21-10.18c1.37-1.09,4.25-2.12,5.55-2.6-1.09,1.65-3.45,5.31-5.19,6.8-2.87,2.46-8.87,7.48-11.3,8-1.03.22,1.72-2.01,1.72-2.01Z"/>
    <path class="cls-1" d="M128.05,171.44c-.26,1.27-.52,2.59-1.78,6.1-.54,1.51-2.29,2.24-3.11,3.21.11-1.8.33-5.77,1.03-7.74,1.16-3.25,2.6-3.77,4.29-5.28.72-.65-.17,2.43-.43,3.7Z"/>
    <path class="cls-1" d="M134.82,158.23c-2.24.67,7.72,7.13,11.17,2.95,2.14-2.6,6.96-11.33,7.16-14.69.17-2.85-.08-4.66-2.95-5.18-3.67-.67-5.46,3.86-5.46,3.86,0,0-.68-3.2-3.71-2.91-2.01.19-2.99,1.6-3.13,3.81-.63-2.02-2.02-2.86-4.49-2.05-2.43.8-3.22,5.69-1.29,7.37,2.11,1.83,7.81,2.37,11.08-.08,1.84,3.32-2.11,5.04-8.4,6.93Z"/>
    <path class="cls-1" d="M47.28,122.54c-4.38-.15-8.04,3.18-8.19,7.44-.14,4.26,3.29,7.84,7.67,7.99,4.38.15,8.04-3.19,8.19-7.45.14-4.26-3.29-7.83-7.67-7.98ZM46.85,135.33c-2.88-.1-5.14-2.45-5.04-5.25.09-2.8,2.5-4.99,5.39-4.89,2.88.1,5.13,2.45,5.04,5.25-.1,2.8-2.51,4.99-5.38,4.9Z"/>
    <rect class="cls-1" x="46.68" y="121.52" width=".68" height="17.47" transform="translate(-84.75 172.83) rotate(-88.06)"/>
    <polygon class="cls-1" points="54.89 126.56 39.48 134.55 39.15 133.95 54.56 125.96 54.89 126.56"/>
    <polygon class="cls-1" points="51.93 123.22 42.7 137.65 42.11 137.29 51.34 122.86 51.93 123.22"/>
    <rect class="cls-1" x="38.52" y="129.9" width="17" height=".7" transform="translate(-84.76 172.82) rotate(-88.06)"/>
    <polygon class="cls-1" points="43.21 122.59 51.44 137.6 50.83 137.92 42.59 122.91 43.21 122.59"/>
    <polygon class="cls-1" points="39.78 125.46 54.62 134.47 54.25 135.05 39.42 126.04 39.78 125.46"/>
    <path class="cls-1" d="M36.6,140.08c.37-1.65,1.93-2.97,2.96-2.7,1.03.27,5.6,2.91,8.31,2.74,2.71-.17,5.84-1.51,7.34-2.42,1.5-.91,2.02-1.47,2.96-.73.94.74-.88,3.45-1.73,3.72-1.1.35-4.83,1.62-7.15,2.04-2.37.43-7.08.45-9.02.46-1.93,0-2.85-.21-3-.35-.34-.32-1.06-1.11-.69-2.76Z"/>
    <path class="cls-1" d="M38.28,105.19c.73-1.64,12.82-12.54,22.5-15.54,1.82-.48,5.1-.8,6.6.84,1.2,1.32,1.34,3.17-.62,4.28-.58.33-1.58.76-3.34.15,3.68,1.59,4.63,4.32,2.12,6.34-2.03,1.62-5.57,2.96-6.15.93-.55-1.94-1.02-3.44-3.29-3.43-6.94.03-18.4,7.74-17.83,6.44Z"/>
    <path class="cls-1" d="M68.31,134.94c0-.09,12.45-5.33,14.08-5.2,1.15.09,1.32.04,2.82.27,1.51.22,7.12,1.5,1.02,6.77-.57.49-10.69,8.58-18.84,8.6,2.55-1.18,6.46-3.45,10.02-4.89,2.67-1.08,4.45-2.79,3.29-5.16-.95-1.93-3.3-1.52-5.2-.86-2.75.96-4.76,1.94-5.68,2.38-2.1,1.01-3.5.47-7.47,1.77-.37-.71-.2-.46.35-.73,2.12-1.07,2.09-.14,5.14-1.63.64-.31,2.43-.68,2.65-.77.22-.08.28-.2.16-.33-.12-.13-1.48-.12-1.95,0-.3.03-.38-.13-.39-.23Z"/>
    <path class="cls-1" d="M81.89,162.82c-.26-.03-2.21.23-2.35.18-.15-.05-.43-.56-.51-.88,2.38-1.17,3.04-4.21,2.8-4.62-.24-.41-1.63-.57-2.36-.74-.14-.57-1.01-.75-1.54-.59-.56.17-.74.86-.88,1.07-.14.21-.79.24-1.32.55-.73.42-2.06,1.62-2.34,1.91-.28.29-4.77,2.16-5.39,2.51-.61.35-.59,1.18-.8,1.62-.21.44-.65.83-1.07,1.33-.42.5-1.57,1.43-1.95,1.94-.38.51.96,3.05,1.13,3.32-.26.14-.37-.01-.77.54-.39.55.26,1.36.73,1.88.47.52,2.24.73,3.66.72,0,0,.84.21,1.07.37.23.16.43.54.67.49.25-.05.3-.25.28-.41-.02-.16-.28-.6-.1-.74.18-.14,1.33-.26,1.68-.18.35.08,1.02.14,1.21-.03.19-.17-.26-.64-.42-.77-.16-.14-.65,0-.84.04-.19.05-1.68-.08-1.91-.15-.22-.08-.51-.35-.46-.43.05-.08.04-.29.71-.11.82.21,4.11-.67,4.64-1,.44.33,3.28.94,3.5.93.41-.02.42-.4.06-.53-.15-.05.16-.42.51-.58.35-.15,1.3-.34,1.41-.54.12-.2.18-.43-.17-.51-.12-.02-.98.1-.83-.05.2-.19.24-.51.18-.57-.06-.06-.32-.23-.48,0-.09.13-.23.27-.49.47-.27.2-.76.24-1.07.12-.31-.13-1.09-1.26-1.41-1.76.39-.31,2.27-2.46,2.43-2.7.12.24.56.62.77.56.21-.06.16-.24.05-.45-.11-.21-.1-.68.09-.73.19-.05,1.82.34,2.04.24.23-.1.06-.31,0-.41-.05-.1-.96-.28-1.02-.34-.06-.06.12-.19.31-.25.18-.05.84-.33.86-.46.03-.13-.06-.26-.32-.29ZM77.9,159.87c-.39.06-.74-.2-.81-.58-.06-.37.2-.73.58-.78.38-.06.74.2.8.58.06.38-.2.73-.58.79Z"/>
    <path class="cls-1" d="M97.09,119.94h0s0-.01,0-.02v.02ZM90.7,135.81s.01,0,.02,0c.08-.05.16-.11.23-.16l-.25.16ZM87.48,138.04l-.91.62h.01c.3-.21.61-.42.91-.62,0,0,0,0,0,0ZM81.83,141.9h0s.06-.04.09-.06l-.09.06ZM97.1,119.63s0-.02,0-.03h0s0,.03,0,.03ZM113.37,122.69c-1.48-1.27-5.22-2.56-5.35-4.05-.18-2.14,6.15-5.74,6.57-5.97.42-.23.31-.64-.31-.59-.33.03-14.77,3.2-16.61,5.96-.35.53-.53,1.05-.58,1.56.01,0,3.78.18,3.77.25,0,.07-3.76.1-3.79.1.04,1.76,1.59,3.39,3.13,4.84.5.47.78.94.88,1.4,1.1.06,2.51.14,2.5.18,0,.04-1.36.07-2.46.08.01.11.01.22,0,.33,0,0,4.51.2,4.51.31,0,.11-4.57.08-4.57.08-.28,1.1-1.36,2.14-2.46,3.06-.63.53-3.78,2.74-7.67,5.42l.51-.33s7.65.23,7.6.36c-.04.12-1.19-.04-8.34.13-1.04.72-2.13,1.47-3.24,2.23,10.5.37,12.42.56,12.35.65-.07.09-.92-.03-13.25-.02-1.57,1.07-3.15,2.15-4.65,3.18l1.12-.76c10.67.48,12.96.5,12.81.63-.14.13-14.01.19-14.03.19-4.93,3.37-9.02,6.14-9.02,6.14,11.62.4,13.43.46,28.82.98.52-.64,11.93-16.46,13.51-19.47,1.06-2.02.32-5.07-1.78-6.86ZM108.32,135.82s0,.22-.01.33c-.01.44-1.18.76-2.61.71-1.43-.05-2.57-.45-2.55-.89,0-.12.01-.33.01-.33,0,0,0-.23.01-.36.02-.48,1.18-.83,2.61-.78,1.42.05,2.56.48,2.55.96,0,.13-.01.35-.01.35Z"/>
    <path class="cls-1" d="M68.08,146.83c-3.1-.8-9.79,3.66-13.76,6.71-4.13,3.18-13.83,10.5-8.75,21.34,0,0,.92,1.62,2.41,3.07,2.02,1.97,5.95,2.54,7.35,1.4,2.71-2.21,4.71-7.62,5-8.18,1.53-2.96,7.52-12.44,8.13-15.47.71-3.55,2.26-8.18-.39-8.86ZM58.58,161.6c-1.48,3.21-5.55,7.88-4.52,11.54.1.7.53,2.56.7,3.04.18.48.03,1.12-.17,1.32-.2.2-1.08.47-1.31.15-.23-.32-1.28-1.57-2.36-1.89-1.08-.32-2.56-.05-2.86-.05-.3,0-1.16-.1-1.23-.92-.1-.65.85-1.49,1.43-1.72.58-.22,1.56-1.19,1.91-2.09.35-.89.9-3.48.9-3.48.22-1.67-.1-3.43-.05-4.53.05-1.1,0-5.17,3.57-8.21.93-.82,1.18-1.07,1.63-.97.45.1.5.4.53.72.03.33.1,3.14-.08,3.66.6-.6,1.28-2.41,1.28-2.76,0-.35,0-.55.1-.5.1.05,2.01,3.49.53,6.69ZM66.54,155.91c-.26,1.08-1.54,1.94-2.7,1.9-.13,0-.25-.02-.38-.05-.61-.13-1.96-.76-1.33-3.65.51-2.38.07-2.9-.03-2.98-.18-.16-.61-.05-.84.04-.32.11-.68-.05-.8-.38-.12-.32.05-.67.38-.79.88-.31,1.57-.24,2.08.2.75.65.89,2.02.43,4.18-.27,1.25-.13,2.07.38,2.19.6.13,1.47-.45,1.58-.93.08-.33.42-.54.75-.46.33.08.54.41.46.75ZM54.33,158.46c-.33.3-.33.79,0,1.09.33.31.86.31,1.19,0,.33-.3.32-.8,0-1.1-.33-.3-.86-.3-1.19,0Z"/>
    <path class="cls-1" d="M76.11,178.66c-.1-.23-.28-.27-.47-.25-.18.02-.42.27-.55.42-.27.08-.66.14-1.16.39-.5.25-1.08.64-1.59,1-.51.36-2.6,1.55-2.99,1.61-.05-.18-.12-.31-.26-.43-.13-.13-.27-.17-.54-.17.38-4.08-1.86-5.62-3.67-6.07-2.85-.71-5.03.55-6.4,2.71-1,1.58-.72,3.21-.24,4.29-.79-.09-3.24.22-3.24.22,0,0-.15.03-.18.15-.03.12.18.23.18.23,0,0,4.57,2.59,8.71,3.9,2.36.75,4.44,1.28,5.1,1.39.52.09.71-3.1,2.68-3.84.9-.34,2.26-.32,2.67-.43.41-.11.36-.13.58-.53.22-.39-.66-1.95-.85-2.1-.19-.14-.25-.05-.56-.12.19-.08,1.34-.69,1.63-.79.18.15.42.12.63.04.18-.08.23-.34.18-.52-.06-.21-.37-.27-.55-.23-.17.04-.29.18-.38.34-.18.08-1.67.75-2.5,1.09.84-1.12,2.88-1.83,2.95-1.77.12.08.48.09.68,0,.15-.06.23-.34.15-.53ZM73.02,181.8c.22-.11.49-.04.61.15.12.2.04.44-.17.55-.21.11-.49.04-.61-.15-.12-.19-.04-.44.17-.55Z"/>
    <path class="cls-1" d="M108.21,139.88l-1.44,2.01.29-.4-.28,8.3s-.04.29-.27.28c-.23,0-.25-.3-.25-.3l.26-7.52-3.72,5.21-.31,9c.13.55,1.05,1.27,2.37,1.32,1.42.05,2.77-.54,2.78-1.15,0-.05.05-1,.04-1.05l.53-15.7ZM106.52,142.25h0s.26-.36.26-.36l-.26.36Z"/>
    <path class="cls-1" d="M60.87,139.38s1.87.78,15.83-5.42c0,0,6.96-2.45,7.05-2.77.26-.93-1.02-1.05-1.09-1.46-.03-.19.07-2.3.8-4.54.84-2.6,2.57-5.35,2.36-5.47-.21-.11-2.24,2.5-3.35,5.06-.97,2.25-1.3,4.47-1.43,4.43-.08-.02.14-2.08.68-4.47.75-3.31,2.41-7.25,2.11-7.37-.3-.12-2.45,3.91-3.51,7.14-.69,2.12-.99,3.89-1.03,3.88-.04,0-.05-1.28.23-2.8.43-2.32,1.74-5.22,1.46-5.31-.24-.08-1.98,2.66-2.86,5.26-.77,2.29-1.23,4.46-1.34,4.43-.11-.03.09-2.33.63-5.02.76-3.8,2.47-8.36,2.18-8.45-.3-.09-2.4,4.38-3.48,7.99-.71,2.4-1.05,4.41-1.17,4.39-.12-.03-.14-1.59.15-3.35.36-2.19,1.58-4.67,1.44-4.91-.13-.24-1.88,2.35-2.76,4.74-.71,1.94-1.11,3.73-1.22,3.74-.11,0-.17-1.79.07-3.8.31-2.54,1.84-5.39,1.65-5.55-.12-.1-2.05,2.79-2.93,5.61-.78,2.49-1.26,4.87-1.38,4.9-.12.03.06-2.19.49-4.51.46-2.49,1.7-5.08,1.45-5.22-.24-.14-1.78,2.48-2.53,5.22-.78,2.85-1.29,5.82-1.44,5.85-.13.02-.02-2.71.4-5.84.56-4.12,2.26-8.91,2-9.04-.26-.13-2.32,4.67-3.23,8.98-.72,3.43-1.11,6.53-1.26,6.55-.15.02-.32-2.28-.23-4.84.1-3.07,1.24-6.47.88-6.65-.35-.17-1.76,3.45-2.08,6.98-.29,3.23-.27,6.36-.42,6.4-.14.03-.5-2.26-.61-4.83-.12-3.2.8-6.82.6-6.98-.21-.17-1.5,3.76-1.7,7.11-.15,2.41-.01,4.52-.09,4.55-.1.03-.42-1.19-.56-2.47-.14-1.28-.02-2.61-.25-2.57-.24.03-.62,1.57-.53,3.15.07,1.39.24,2.72.15,2.76-.11.05-.39-.97-.65-1.86-.2-.69-.02-1.21-.24-1.27-.27-.07-.74,4.63.75,7.68Z"/>
    <path class="cls-1" d="M85.27,190.63c-5.2-.25-9.46-1.05-9.95-1.06.25-1.07.57-2.14.84-3.19"/>
    <rect class="cls-1" x="89.66" y="139.5" width="1.05" height="22.75" transform="translate(-63.65 235.9) rotate(-88.06)"/>
    <path class="cls-1" d="M138.24,124.53c-.04.48-.66,1.31.03,1.67.53.28,1.5-.24,1.78-.56.84-.96,1.41-2.36,1.66-3.55.33-1.56.36-2.06-1.17-3.27-1.86-1.48-2.62-2.17-1.51-4,.62-1.03.99-2.04.1-3.15-.87-1.08-3.48-1.8-3.81-3.06-.32-1.27,1.3-3.3-1.31-3.8-2.08-.4-2.54,1.92-2.33,3.19.25,1.54,1.31,2.55,2.48,3.75.89.91,2.48,2.14,1.88,3.4-.37.78-1.31,1.19-1.69,2.01-.67,1.45-.07,2.56,1.17,3.8,1.15,1.14,2.87,1.99,2.72,3.56Z"/>
    <path class="cls-1" d="M124.12,116c-.13,1.28,1.47,4.09,3.38,3.63,2.19-.53,3.89-2.07,4.66-3.6.72-1.44.14-2.46-.85-3.85-1.21-1.69-1.38-2.42-.98-4.12.59-2.48-5.71-3.2-4.6.52.44,1.48,3.59,3.04,2.44,4.76-.91,1.36-3.88.95-4.05,2.65Z"/>
    <path class="cls-1" d="M125.07,105.93c.2.49-.39,2.24-.4,2.87-.03,1.3.38,2.42-.17,3.59-.59,1.25-1.66.91-2.45,1.58-.95.81-1.41,1.82-1.32,3.05.04.56,1.33,1.81.67,2.79-.58.87-3.32.31-3.91-.05-2.04-1.24-2.73-1.8-2.49-3.19.21-1.23,2-1.57,2.04-2.36.03-.56-1.37-2.39-.44-3.29,1.14-1.11,3.08.23,4.34-.75.74-.57,1.17-1.15.84-1.99-.27-.7-.7-1-.47-1.74.33-1.05,1.21-1.31,1.95-1.28.74.02,1.61.27,1.81.76Z"/>
    <path class="cls-1" d="M120.19,102.93c.67.41,1.39,1.59.48,2.89-2.26,3.22-3.92,2-5.69,2.05-.8.02-1.47.19-2.14.73-.82.68-.8,1.64-1.4,2.45-1.09,1.5-5.03,1.94-5.88-.1-.38-.91-.68-5.52.56-5.74,1.63-.29,2.02.75,2.72,1.28,1,.76,2.01.23,3.08-.32,1.77-.92,1.89-2.33,3.64-3.19,1-.49,2.23-.56,2.74-.55.42.01,1.23.08,1.9.49Z"/>
    <path class="cls-1" d="M114.97,98.78c-1.16.37-2.18,1.06-3.32,1.35-1.67.43-3.22-.99-4.75-1.31-1.67-.35-1.97,1.59-1.75,2.96.41,2.51,4.4,2.9,5.99,2.2,1.26-.56,1.85-2.47,3.29-2.22,1.12.19,2.54.72,3.25-.39.34-.52.84-1,.49-1.86-.34-.86-2.37-.99-3.19-.73Z"/>
    <path class="cls-1" d="M90.93,91.34c-.68.66-1.17,3.35-.2,3.87.97.52,1.74-.03,2.63-.31.43-.13,1.3-.63,1.72-.44.6.26.41,1.08,1,1.55.78.63,2.25.62,3.15.57,1.39-.07,3.37-1.44,4.74-1.05.83.23.37,1.52,1.15,1.96,1.25.71,2.52.02,3.79-.27,1-.23,2.42-.39,3.34.08,1.68.85,5.38,1.93,5.9-.95.19-1.03,0-2.21-.93-2.58-.85-.34-1.94.24-2.76.5-1.14.36-2.68.57-3.05-1.2-.13-.63.03-.77-.41-1.07-.73-.49-2.38.11-3.14.32-1.83.52-3.53,1.53-5.39,1.23-.84-.14-1.8-.39-2.4-1.23-.46-.65-.64-1.85-1.22-2.37-1.38-1.24-6.68.2-7.92,1.39Z"/>
    <path class="cls-1" d="M84.35,84.53c.78-.93,1.9-.82,3.09-.92,1.15-.09,2.57-.04,3.62-.05,1.06,0,3.57.08,5.23.18,2.58.15,1.25.91,2.94.99,3.36.16,4.8-.3,8.02.53,1.87.48,4.03.94,5.72,1.52,1.83.63,3.95,1.37,5.61,2.01,1.34.51,2.39.91,2.51,2.47.1,1.31-1.27,1.75-2.55,1.81-2.58.12-4.02-.92-6.25-1.85-1.83-.76-4.04-.77-6.02-.61-1.07.08-2.14.51-3.35-.22-1.17-.69-.45-2.13-2.22-2.41-2.1-.34-4.79.11-6.85.51-1.97.38-3.71.74-5.74.66-.67-.03-1.52.02-1.93-.6-.25-.38-.37-.94-.64-1.55-.28-.6-1.93-1.88-1.35-2.22l.16-.25Z"/>
    <path class="cls-1" d="M136.95,103.26c-.49-.7.41-1.5.55-1.55.14-.05.47-.11.75.17.28.28.71.63,1.15,1.02.89.81,1.46,1.72,2.25,2.56.62.66,1.88,1.71,2.22,2.63.57,1.53,1.43,2.95,2.44,3.78,1.08.89.48,2.24,1.26,3.57,1.83,3.13,2.26.47,4.54,7.15.23.66-.01,2.07-.37,2.6-.72,1.06-3.33,1.13-4.24,1.11-.46-.01-2.49-.57-2.8-1.3-.39-.92.57-1.91.69-2.78.2-1.54-1.33-2.17-2.13-2.85-.76-.64-1.93-1.27-2.16-2.52-.24-1.28.58-2.88,1.11-3.88.42-.8.55-1.76.04-2.72-.27-.51-1.11-.77-1.5-1.02-.75-.48-1.45-.88-2.17-1.44-.7-.54-1.02-1.48-1.16-2.06-.14-.58.12-1.61.03-1.9-.09-.29-.48-.59-.48-.59Z"/>
    <path class="cls-1" d="M59.12,107.94l-3.55-5.55c-1.09-1.7-3.44-2.25-5.25-1.25l-17.36,9.63c-1.82,1.01-2.41,3.2-1.32,4.89l3.55,5.55c1.09,1.7,3.44,2.25,5.25,1.25l17.36-9.63c1.82-1.01,2.41-3.2,1.32-4.89ZM54.22,103.99l2.65,4.14-.43.24-2.65-4.15.43-.24ZM35.6,118.53c-.55.3-1.26.14-1.58-.37-.33-.51-.15-1.17.4-1.47.55-.3,1.26-.14,1.58.37.33.51.14,1.17-.41,1.47ZM40.94,121.18l-6.55-10.24,16.5-9.16,6.55,10.24-16.5,9.16Z"/>
    <path class="cls-1" d="M112.5,174.05c-2.17.55-3.27,2.2-5.97,5.05-2.94,3.11-5.43.23-3.72-2.09,1.33-1.8,2.37-2.17,3.74-4.59,1.38-2.41-.46-3.77-.9-4.2,0,0-1.03-1.02-1.38-1.21-.34-.19-.52-.17-.7.15-.05.1-.17.38-.43,1.06-.69,1.8.26,3.43.38,3.68.12.26.15.51-.02.67-.17.16-.35.82-3,3.61-3.42,3.6,1.55,10.85,8.23,4.49.92-.88,2.44-3.21,4.59-3.72,2.14-.51,3.68,3.46.14,5.68-3.1,1.94-10.05,3.69-12.31,4.04-1.09.17-1.71-.14-1.93-.98-.2-.74.32-2.16.76-2.64.3-.34.53-.59-.07-.38-.97.34-2.29,1.09-2.65,3.29-.44,2.66,1.83,3.62,4.65,2.99,5.88-1.3,8.76-2.34,12.81-3.94,1.65-.65,2.87-2.2,3.52-4.26,1.88-4.84-3.3-7.32-5.73-6.7Z"/>
    <path class="cls-1" d="M81.07,131.03s-1.22,3.15-3.55,4.25c-2.74,1.3-15.94,6.1-28.43,12.01-13.73,6.49-25.98,13.97-31,19.36,1.47,1.71,2.7,2.99,4.41,4.17,2.8,1.93,5.88,2.94,5.88,2.94,1.84-3.8,10.91-15.32,23.28-22.43,8.79-5.05,25.25-12.76,26.96-13.74,1.71-.98,3.9-3.4,4.39-4.5.49-1.1-1.94-2.07-1.94-2.07Z"/>
  </g>
  <g>
    <path class="cls-1" d="M50.33,0h-.02,4.5l4.03,9.43L63.19,0h3.51l4.28,9.43,4.06-9.43h4.5l-7.53,17.29h-1.85l-5.23-11.16-5.28,11.16h-1.83L50.33,0Z"/>
    <path class="cls-1" d="M83.86,5.3c1.17,0,2.24.24,3.23.72.99.48,1.78,1.17,2.36,2.08.58.91.88,1.98.88,3.2s-.3,2.35-.91,3.26c-.61.91-1.41,1.59-2.4,2.04-.99.45-2.05.68-3.16.68-1.2,0-2.3-.24-3.3-.73-1-.49-1.79-1.18-2.36-2.08-.58-.9-.86-1.94-.86-3.12s.29-2.21.87-3.13c.58-.92,1.37-1.64,2.37-2.15s2.1-.77,3.29-.77ZM83.76,7.53c-1.68,0-2.52,1.29-2.52,3.88,0,1.01.2,1.86.6,2.57.4.71,1.07,1.06,2,1.06,1.73,0,2.6-1.29,2.6-3.88,0-2.42-.89-3.63-2.68-3.63Z"/>
    <path class="cls-1" d="M99.83,5.3c.72,0,1.53.35,2.43,1.05l-1,3.2c-.43-.3-.79-.52-1.08-.65-.29-.13-.63-.2-1.02-.2-.57,0-1.09.23-1.55.69s-.83.99-1.1,1.58-.4,1.04-.4,1.36v4.73h-3.58V5.53h3.58v3.33c.15-.3.34-.66.57-1.08.22-.42.48-.82.76-1.18.28-.36.63-.67,1.04-.92.41-.25.86-.37,1.37-.37Z"/>
    <path class="cls-1" d="M103.35,0h3.58v17.06h-3.58V0Z"/>
    <path class="cls-1" d="M117.62,0h3.58v17.06h-3.58v-.93c-.98.77-2.04,1.15-3.2,1.15s-2.08-.28-2.89-.83-1.43-1.29-1.85-2.21c-.42-.92-.63-1.9-.63-2.94s.22-2.09.67-3.01,1.08-1.65,1.92-2.19c.84-.54,1.83-.81,2.97-.81.92,0,1.92.24,3.02.73V0ZM115.54,7.73c-.93,0-1.62.34-2.08,1.02-.46.68-.69,1.54-.69,2.58,0,.94.22,1.74.67,2.4.45.67,1.13,1,2.05,1,.75,0,1.46-.27,2.13-.82v-5.48c-.57-.47-1.26-.7-2.08-.7Z"/>
    <path class="cls-1" d="M7.27,25.05h-.02,4.5l4.03,9.43,4.35-9.43h3.51l4.28,9.43,4.06-9.43h4.5l-7.53,17.29h-1.85l-5.23-11.16-5.28,11.16h-1.83l-7.48-17.29Z"/>
    <path class="cls-1" d="M40.35,30.36c1.16,0,2.13.2,2.91.61.78.41,1.39.94,1.84,1.6s.76,1.36.93,2.11.27,1.5.27,2.26h-8.28c.1,1.04.48,1.82,1.13,2.36.65.53,1.54.8,2.68.8,1.45,0,2.88-.53,4.28-1.58v2.3c-1.41,1.02-3.22,1.53-5.43,1.53-1.25,0-2.36-.24-3.34-.73-.98-.49-1.73-1.18-2.27-2.08-.53-.9-.8-1.95-.8-3.14s.27-2.23.81-3.15,1.27-1.63,2.2-2.13c.93-.5,1.95-.75,3.07-.75ZM40.58,32.56c-.67,0-1.23.23-1.69.7s-.73,1.06-.81,1.78h5.03c-.07-.7-.32-1.29-.78-1.77-.45-.47-1.03-.71-1.75-.71Z"/>
    <path class="cls-1" d="M51.92,26.95h.48v3.63h4.18v2.5h-4.18v4c0,.54.03.98.09,1.34.06.36.22.66.48.9.25.24.65.36,1.18.36.38,0,.7-.04.97-.13.27-.09.75-.27,1.46-.55v2.63c-.45.15-.83.27-1.14.37-.31.1-.63.18-.97.24-.34.06-.75.09-1.22.09-1.48,0-2.59-.39-3.32-1.18-.74-.79-1.11-1.9-1.11-3.35v-4.73h-1.73v-.67l4.83-5.46Z"/>
    <path class="cls-1" d="M58.2,25.05h3.58v17.06h-3.58v-17.06Z"/>
    <path class="cls-1" d="M69.43,30.36c3.25,0,4.88,1.22,4.88,3.65v4.95c0,.58.19.87.56.87.35,0,.82-.18,1.42-.55v2c-1.17.7-2.32,1.05-3.45,1.05s-1.81-.43-2-1.28c-1.2.85-2.45,1.28-3.75,1.28-.59,0-1.13-.13-1.64-.38-.51-.25-.91-.61-1.2-1.07s-.44-.98-.44-1.56c0-1.5.99-2.63,2.98-3.4l3.87-1.22c0-.67-.15-1.16-.44-1.48-.3-.32-.81-.48-1.55-.48-1.43,0-2.85.64-4.26,1.92v-2.93c.84-.47,1.65-.82,2.46-1.05.8-.23,1.66-.35,2.58-.35ZM70.66,36.54c-.76.28-1.32.5-1.68.65-.36.15-.7.38-1.02.69-.32.3-.48.67-.48,1.08,0,.32.13.6.38.84.25.24.54.36.87.36.25,0,.56-.07.92-.22.37-.14.7-.36,1-.64v-2.77Z"/>
    <path class="cls-1" d="M84.75,30.36c.91,0,1.69.2,2.32.59.64.39,1.11.93,1.43,1.61.32.68.47,1.44.47,2.28v7.28h-3.58v-6.76c0-.74-.12-1.34-.37-1.79-.24-.45-.73-.68-1.46-.68-.42,0-.83.12-1.22.35s-.72.52-.97.85c-.25.33-.38.62-.38.87v7.18l-3.58-.02v-11.54h3.58v1.67c1.02-1.27,2.27-1.9,3.75-1.9Z"/>
    <path class="cls-1" d="M99.59,25.05h3.58v17.06h-3.58v-.93c-.98.77-2.04,1.15-3.2,1.15s-2.08-.28-2.89-.83c-.81-.55-1.43-1.29-1.85-2.21s-.63-1.9-.63-2.94.22-2.09.67-3.01,1.08-1.65,1.92-2.19c.84-.54,1.83-.81,2.97-.81.92,0,1.92.24,3.02.73v-6.03ZM97.51,32.78c-.93,0-1.62.34-2.08,1.02-.46.68-.69,1.54-.69,2.58,0,.94.22,1.74.67,2.4.45.67,1.13,1,2.05,1,.75,0,1.46-.27,2.13-.82v-5.48c-.57-.47-1.26-.7-2.08-.7Z"/>
    <path class="cls-1" d="M110.02,30.36c.68,0,1.32.07,1.9.2.58.13,1.19.35,1.83.65v2.58c-1.47-.75-2.67-1.12-3.6-1.12-.36,0-.72.07-1.07.2s-.53.35-.53.65c0,.12.06.25.19.39.13.14.26.25.38.31l2.96,1.28c.64.26,1.18.67,1.61,1.24.43.57.64,1.23.64,1.96,0,1.23-.44,2.15-1.32,2.75-.88.6-2.01.9-3.39.9s-2.74-.27-4.12-.82v-2.58c.74.36,1.39.63,1.94.81.56.18,1.13.27,1.71.27.42,0,.82-.06,1.2-.18s.57-.35.57-.69c0-.19-.08-.37-.26-.55-.17-.18-.35-.31-.54-.4l-3-1.3c-.54-.24-.99-.63-1.33-1.19-.35-.56-.52-1.14-.52-1.73,0-1.19.46-2.09,1.38-2.7.92-.61,2.05-.91,3.37-.91Z"/>
    <path class="cls-1" d="M123.09,25.05h7.61c1.7,0,3.27.34,4.71,1.01s2.59,1.66,3.45,2.95c.86,1.29,1.28,2.8,1.28,4.54,0,1.43-.25,2.69-.76,3.78-.5,1.08-1.21,1.98-2.12,2.68s-1.97,1.23-3.17,1.58c-1.21.35-2.5.52-3.89.52h-7.11v-17.06ZM127.4,28.3v10.56h2.95c1.02-.02,1.93-.23,2.74-.61.81-.39,1.45-.98,1.93-1.77.48-.79.71-1.78.71-2.95s-.23-2.07-.68-2.86c-.45-.79-1.09-1.38-1.91-1.78s-1.78-.59-2.87-.59h-2.88Z"/>
    <path class="cls-1" d="M147.36,30.36c3.25,0,4.88,1.22,4.88,3.65v4.95c0,.58.19.87.56.87.35,0,.82-.18,1.42-.55v2c-1.17.7-2.32,1.05-3.45,1.05s-1.81-.43-2-1.28c-1.2.85-2.45,1.28-3.75,1.28-.59,0-1.13-.13-1.64-.38-.51-.25-.91-.61-1.2-1.07s-.44-.98-.44-1.56c0-1.5.99-2.63,2.98-3.4l3.87-1.22c0-.67-.15-1.16-.44-1.48s-.81-.48-1.55-.48c-1.43,0-2.85.64-4.26,1.92v-2.93c.84-.47,1.65-.82,2.46-1.05.8-.23,1.66-.35,2.58-.35ZM148.59,36.54c-.76.28-1.32.5-1.68.65s-.7.38-1.02.69c-.32.3-.48.67-.48,1.08,0,.32.13.6.38.84.25.24.54.36.87.36.25,0,.56-.07.92-.22.37-.14.7-.36,1-.64v-2.77Z"/>
    <path class="cls-1" d="M153.04,30.58h3.88l2.45,5.71,2.58-5.71h3.81l-7.73,17.06h-3.86l3.4-7.4-4.53-9.66Z"/>
  </g>
  <g>
    <path class="cls-1" d="M.01,203.25h-.01,2.66l2.38,5.58,2.57-5.58h2.07l2.53,5.58,2.4-5.58h2.66l-4.46,10.23h-1.09l-3.09-6.6-3.12,6.6h-1.08L.01,203.25Z"/>
    <path class="cls-1" d="M21.43,206.39c.69,0,1.26.12,1.72.36.46.24.82.55,1.09.95s.45.81.55,1.25.16.89.16,1.34h-4.9c.06.61.28,1.08.67,1.39.38.31.91.47,1.58.47.86,0,1.7-.31,2.53-.93v1.36c-.84.6-1.91.9-3.21.9-.74,0-1.39-.14-1.97-.43-.58-.29-1.03-.7-1.34-1.23-.32-.53-.47-1.15-.47-1.86s.16-1.32.48-1.86c.32-.54.75-.96,1.3-1.26.55-.3,1.15-.44,1.82-.44ZM21.56,207.69c-.4,0-.73.14-1,.42-.27.28-.43.63-.48,1.05h2.97c-.04-.42-.19-.76-.46-1.05-.27-.28-.61-.42-1.03-.42Z"/>
    <path class="cls-1" d="M28.49,204.38h.28v2.15h2.47v1.48h-2.47v2.37c0,.32.02.58.06.79.04.21.13.39.28.53s.38.21.7.21c.22,0,.41-.03.57-.08.16-.05.45-.16.87-.33v1.55c-.27.09-.49.16-.67.22-.18.06-.37.11-.58.14-.2.04-.44.06-.72.06-.87,0-1.53-.23-1.97-.7s-.65-1.12-.65-1.98v-2.79h-1.02v-.4l2.86-3.23Z"/>
    <path class="cls-1" d="M32.43,203.25h2.12v10.09h-2.12v-10.09Z"/>
    <path class="cls-1" d="M39.29,206.39c1.92,0,2.88.72,2.88,2.16v2.93c0,.34.11.52.33.52.21,0,.49-.11.84-.33v1.18c-.69.42-1.37.62-2.04.62s-1.07-.25-1.19-.76c-.71.5-1.45.76-2.22.76-.35,0-.67-.08-.97-.23-.3-.15-.54-.36-.71-.63s-.26-.58-.26-.92c0-.89.59-1.56,1.76-2.01l2.29-.72c0-.39-.09-.69-.26-.87-.17-.19-.48-.28-.92-.28-.85,0-1.69.38-2.52,1.14v-1.73c.49-.28.98-.49,1.45-.62.47-.14.98-.2,1.52-.2ZM40.02,210.05c-.45.17-.78.29-.99.39-.21.09-.41.23-.6.41-.19.18-.29.39-.29.64,0,.19.08.35.23.5.15.14.32.21.52.21.15,0,.33-.04.55-.13.22-.08.41-.21.59-.38v-1.64Z"/>
    <path class="cls-1" d="M48.57,206.39c.54,0,1,.12,1.38.35.38.23.66.55.85.95.19.4.28.85.28,1.35v4.31h-2.12v-4c0-.44-.07-.79-.22-1.06s-.43-.4-.86-.4c-.25,0-.49.07-.72.21-.23.14-.43.31-.57.5s-.22.37-.22.51v4.25h-2.12v-6.84h2.12v.99c.6-.75,1.34-1.12,2.22-1.12Z"/>
    <path class="cls-1" d="M57.57,203.25h2.12v10.09h-2.12v-.55c-.58.46-1.21.68-1.89.68s-1.23-.16-1.71-.49c-.48-.33-.85-.76-1.1-1.3-.25-.54-.38-1.12-.38-1.74s.13-1.23.39-1.78c.26-.54.64-.98,1.14-1.29.5-.32,1.08-.48,1.75-.48.54,0,1.14.14,1.79.43v-3.57ZM56.34,207.82c-.55,0-.96.2-1.23.6-.27.4-.41.91-.41,1.53,0,.55.13,1.03.4,1.42s.67.59,1.21.59c.45,0,.86-.16,1.26-.49v-3.24c-.33-.28-.74-.42-1.23-.42Z"/>
    <path class="cls-1" d="M63.97,206.39c.4,0,.78.04,1.12.12.34.08.7.21,1.08.39v1.52c-.87-.44-1.58-.67-2.13-.67-.21,0-.43.04-.63.12s-.31.21-.31.39c0,.07.04.15.11.23.08.08.15.15.23.19l1.75.75c.38.15.7.4.95.74.25.34.38.72.38,1.16,0,.73-.26,1.27-.78,1.63-.52.36-1.19.53-2,.53s-1.62-.16-2.44-.49v-1.52c.44.21.82.37,1.15.48s.67.16,1.01.16c.25,0,.49-.04.71-.11s.34-.21.34-.41c0-.11-.05-.22-.15-.33-.1-.11-.21-.19-.32-.24l-1.77-.77c-.32-.14-.58-.38-.79-.71-.2-.33-.31-.67-.31-1.02,0-.71.27-1.24.82-1.59.55-.36,1.21-.54,1.99-.54Z"/>
    <path class="cls-1" d="M74.85,206.39c1.92,0,2.88.72,2.88,2.16v2.93c0,.34.11.52.33.52.21,0,.49-.11.84-.33v1.18c-.69.42-1.37.62-2.04.62s-1.07-.25-1.19-.76c-.71.5-1.45.76-2.22.76-.35,0-.67-.08-.97-.23-.3-.15-.54-.36-.71-.63s-.26-.58-.26-.92c0-.89.59-1.56,1.76-2.01l2.29-.72c0-.39-.09-.69-.26-.87-.17-.19-.48-.28-.92-.28-.85,0-1.69.38-2.52,1.14v-1.73c.49-.28.98-.49,1.45-.62.47-.14.98-.2,1.52-.2ZM75.57,210.05c-.45.17-.78.29-.99.39-.21.09-.41.23-.6.41-.19.18-.29.39-.29.64,0,.19.08.35.23.5.15.14.32.21.52.21.15,0,.33-.04.55-.13.22-.08.41-.21.59-.38v-1.64Z"/>
    <path class="cls-1" d="M84.12,206.39c.54,0,1,.12,1.38.35.38.23.66.55.84.95.19.4.28.85.28,1.35v4.31h-2.12v-4c0-.44-.07-.79-.22-1.06s-.43-.4-.86-.4c-.25,0-.49.07-.72.21-.23.14-.43.31-.57.5s-.22.37-.22.51v4.25h-2.12v-6.84h2.12v.99c.6-.75,1.34-1.12,2.22-1.12Z"/>
    <path class="cls-1" d="M93.12,203.25h2.12v10.09h-2.12v-.55c-.58.46-1.21.68-1.89.68s-1.23-.16-1.71-.49c-.48-.33-.85-.76-1.1-1.3-.25-.54-.38-1.12-.38-1.74s.13-1.23.39-1.78.64-.98,1.14-1.29c.5-.32,1.08-.48,1.75-.48.54,0,1.14.14,1.79.43v-3.57ZM91.89,207.82c-.55,0-.96.2-1.23.6-.27.4-.41.91-.41,1.53,0,.55.13,1.03.4,1.42.27.39.67.59,1.21.59.45,0,.87-.16,1.26-.49v-3.24c-.33-.28-.75-.42-1.23-.42Z"/>
    <path class="cls-1" d="M103.29,204.38h.28v2.15h2.47v1.48h-2.47v2.37c0,.32.02.58.06.79.04.21.13.39.28.53s.38.21.7.21c.22,0,.42-.03.57-.08.16-.05.45-.16.87-.33v1.55c-.27.09-.49.16-.67.22-.18.06-.37.11-.58.14-.2.04-.44.06-.72.06-.87,0-1.53-.23-1.97-.7-.44-.46-.65-1.12-.65-1.98v-2.79h-1.02v-.4l2.86-3.23Z"/>
    <path class="cls-1" d="M111.55,206.39c.42,0,.9.21,1.44.62l-.59,1.89c-.25-.18-.47-.31-.64-.38-.17-.08-.37-.12-.6-.12-.34,0-.64.14-.92.41-.27.27-.49.58-.65.93s-.24.62-.24.81v2.8h-2.12v-6.82h2.12v1.97c.09-.18.2-.39.34-.64.13-.25.28-.48.45-.7.17-.22.37-.4.61-.54s.51-.22.81-.22Z"/>
    <path class="cls-1" d="M116.72,206.39c1.92,0,2.88.72,2.88,2.16v2.93c0,.34.11.52.33.52.21,0,.49-.11.84-.33v1.18c-.69.42-1.37.62-2.04.62s-1.07-.25-1.19-.76c-.71.5-1.45.76-2.22.76-.35,0-.67-.08-.97-.23-.3-.15-.54-.36-.71-.63-.17-.27-.26-.58-.26-.92,0-.89.59-1.56,1.76-2.01l2.29-.72c0-.39-.09-.69-.26-.87-.17-.19-.48-.28-.92-.28-.85,0-1.69.38-2.52,1.14v-1.73c.49-.28.98-.49,1.45-.62.47-.14.98-.2,1.53-.2ZM117.44,210.05c-.45.17-.78.29-.99.39-.21.09-.41.23-.6.41s-.29.39-.29.64c0,.19.08.35.23.5.15.14.32.21.51.21.15,0,.33-.04.55-.13.22-.08.41-.21.59-.38v-1.64Z"/>
    <path class="cls-1" d="M126.36,203.25h2.12v10.09h-2.12v-.55c-.58.46-1.21.68-1.89.68s-1.23-.16-1.71-.49c-.48-.33-.85-.76-1.1-1.3-.25-.54-.38-1.12-.38-1.74s.13-1.23.39-1.78.64-.98,1.14-1.29c.5-.32,1.08-.48,1.75-.48.54,0,1.14.14,1.79.43v-3.57ZM125.14,207.82c-.55,0-.96.2-1.23.6s-.41.91-.41,1.53c0,.55.13,1.03.4,1.42.27.39.67.59,1.21.59.45,0,.87-.16,1.26-.49v-3.24c-.33-.28-.75-.42-1.23-.42Z"/>
    <path class="cls-1" d="M131.43,203.09c.34,0,.62.12.84.36.22.24.33.52.33.83s-.12.6-.36.82c-.24.22-.51.33-.83.33-.29,0-.56-.1-.81-.31-.25-.21-.37-.48-.37-.82s.12-.64.35-.88.52-.35.85-.35ZM130.31,206.52h2.11v6.82h-2.11v-6.82Z"/>
    <path class="cls-1" d="M136.43,204.38h.28v2.15h2.47v1.48h-2.47v2.37c0,.32.02.58.06.79.04.21.13.39.28.53s.38.21.7.21c.22,0,.41-.03.57-.08s.45-.16.87-.33v1.55c-.27.09-.49.16-.67.22s-.37.11-.58.14c-.2.04-.44.06-.72.06-.88,0-1.53-.23-1.97-.7-.44-.46-.65-1.12-.65-1.98v-2.79h-1.02v-.4l2.86-3.23Z"/>
    <path class="cls-1" d="M141.45,203.09c.34,0,.62.12.84.36.22.24.33.52.33.83s-.12.6-.36.82c-.24.22-.51.33-.83.33-.29,0-.56-.1-.81-.31-.25-.21-.37-.48-.37-.82s.12-.64.35-.88.52-.35.85-.35ZM140.33,206.52h2.11v6.82h-2.11v-6.82Z"/>
    <path class="cls-1" d="M147.83,206.39c.69,0,1.33.14,1.91.42s1.05.69,1.4,1.23c.35.54.52,1.17.52,1.89s-.18,1.39-.54,1.93c-.36.54-.83.94-1.42,1.21-.59.27-1.21.4-1.87.4-.71,0-1.36-.14-1.95-.43-.59-.29-1.06-.7-1.4-1.23s-.51-1.15-.51-1.85.17-1.31.51-1.85c.34-.55.81-.97,1.4-1.27.59-.3,1.24-.46,1.95-.46ZM147.77,207.71c-1,0-1.49.76-1.49,2.29,0,.59.12,1.1.36,1.52s.63.63,1.18.63c1.02,0,1.54-.76,1.54-2.29,0-1.43-.53-2.14-1.58-2.14Z"/>
    <path class="cls-1" d="M157.44,206.39c.54,0,1,.12,1.38.35.38.23.66.55.85.95.19.4.28.85.28,1.35v4.31h-2.12v-4c0-.44-.07-.79-.22-1.06s-.43-.4-.86-.4c-.25,0-.49.07-.72.21s-.42.31-.57.5-.22.37-.22.51v4.25h-2.12v-6.84h2.12v.99c.61-.75,1.34-1.12,2.22-1.12Z"/>
    <path class="cls-1" d="M164.65,206.39c1.92,0,2.88.72,2.88,2.16v2.93c0,.34.11.52.33.52.21,0,.49-.11.84-.33v1.18c-.69.42-1.37.62-2.04.62s-1.07-.25-1.19-.76c-.71.5-1.45.76-2.22.76-.35,0-.67-.08-.97-.23-.3-.15-.54-.36-.71-.63-.17-.27-.26-.58-.26-.92,0-.89.59-1.56,1.76-2.01l2.29-.72c0-.39-.09-.69-.26-.87-.17-.19-.48-.28-.92-.28-.85,0-1.69.38-2.52,1.14v-1.73c.49-.28.98-.49,1.45-.62.47-.14.98-.2,1.53-.2ZM165.38,210.05c-.45.17-.78.29-.99.39-.21.09-.41.23-.6.41s-.29.39-.29.64c0,.19.08.35.23.5.15.14.32.21.51.21.15,0,.33-.04.55-.13.22-.08.41-.21.59-.38v-1.64Z"/>
    <path class="cls-1" d="M169.65,203.25h2.12v10.09h-2.12v-10.09Z"/>
    <path class="cls-1" d="M5.63,219.25h2.12v6.67l2.71-3.4h2.5l-2.68,3.38,2.8,3.45h-2.62l-2.71-3.38v3.38h-2.12v-10.09Z"/>
    <path class="cls-1" d="M18.08,222.39c.54,0,1,.12,1.38.35.38.23.66.55.85.95.19.4.28.85.28,1.35v4.31h-2.12v-4c0-.44-.07-.79-.22-1.06s-.43-.4-.86-.4c-.25,0-.49.07-.72.21-.23.14-.43.31-.57.5-.15.2-.22.37-.22.51v4.25h-2.12v-6.84h2.12v.99c.6-.75,1.34-1.12,2.22-1.12Z"/>
    <path class="cls-1" d="M25.88,222.39c.69,0,1.33.14,1.91.42.59.28,1.05.69,1.4,1.23.35.54.52,1.17.52,1.89s-.18,1.39-.54,1.93-.83.94-1.42,1.21c-.59.27-1.21.4-1.87.4-.71,0-1.36-.14-1.95-.43-.59-.29-1.06-.7-1.4-1.23s-.51-1.15-.51-1.85.17-1.31.51-1.85c.34-.55.81-.97,1.4-1.27.59-.3,1.24-.46,1.95-.46ZM25.82,223.71c-1,0-1.49.76-1.49,2.29,0,.59.12,1.1.36,1.52s.63.63,1.18.63c1.02,0,1.54-.76,1.54-2.29,0-1.43-.53-2.14-1.58-2.14Z"/>
    <path class="cls-1" d="M30.26,222.52h-.01,2.19l1.43,3.62,1.52-3.62h1.29l1.51,3.62,1.47-3.62h2.18l-3.12,6.96h-1.01l-1.65-3.7-1.72,3.7h-1l-3.06-6.96Z"/>
    <path class="cls-1" d="M42.78,219.25h2.12v10.09h-2.12v-10.09Z"/>
    <path class="cls-1" d="M49.97,222.39c.69,0,1.26.12,1.72.36.46.24.82.55,1.09.95s.45.81.55,1.25.16.89.16,1.34h-4.9c.06.61.28,1.08.67,1.39.38.31.91.47,1.58.47.86,0,1.7-.31,2.53-.93v1.36c-.84.6-1.91.9-3.21.9-.74,0-1.39-.14-1.97-.43-.58-.29-1.03-.7-1.34-1.23-.32-.53-.47-1.15-.47-1.86s.16-1.32.48-1.86c.32-.54.75-.96,1.3-1.26.55-.3,1.15-.44,1.82-.44ZM50.11,223.69c-.4,0-.73.14-1,.42-.27.28-.43.63-.48,1.05h2.97c-.04-.42-.19-.76-.46-1.05-.27-.28-.61-.42-1.03-.42Z"/>
    <path class="cls-1" d="M59.6,219.25h2.12v10.09h-2.12v-.55c-.58.46-1.21.68-1.89.68s-1.23-.16-1.71-.49c-.48-.33-.85-.76-1.1-1.3-.25-.54-.38-1.12-.38-1.74s.13-1.23.39-1.78c.26-.54.64-.98,1.14-1.29.5-.32,1.08-.48,1.75-.48.54,0,1.14.14,1.79.43v-3.57ZM58.38,223.82c-.55,0-.96.2-1.23.6-.27.4-.41.91-.41,1.53,0,.55.13,1.03.4,1.42s.67.59,1.21.59c.45,0,.86-.16,1.26-.49v-3.24c-.33-.28-.74-.42-1.23-.42Z"/>
    <path class="cls-1" d="M66.18,222.52h4.13v1.42h-1.01c.13.22.22.41.28.57s.08.35.08.58c0,.53-.15.97-.44,1.31-.29.34-.64.58-1.05.74-.41.15-.81.24-1.2.26-.04,0-.13,0-.27.02-.13,0-.27.03-.39.05-.13.03-.24.07-.33.14s-.14.15-.14.26c0,.16.1.27.29.33s.52.11.97.15c.45.04.8.09,1.05.15.56.12,1.02.35,1.36.68.34.33.52.76.52,1.28,0,.57-.17,1.03-.51,1.37s-.77.58-1.3.71-1.1.2-1.7.2c-.95,0-1.8-.14-2.55-.41-.75-.27-1.13-.8-1.13-1.59,0-.32.09-.6.27-.83.18-.23.41-.42.68-.55.28-.14.57-.23.88-.29v-.03c-.3-.14-.52-.26-.64-.36s-.19-.28-.19-.54c0-.5.41-.83,1.24-.99v-.03c-.56-.09-1.02-.33-1.37-.72-.36-.39-.53-.86-.53-1.39s.14-1,.42-1.38c.28-.37.65-.65,1.1-.83.46-.18.94-.27,1.45-.27ZM66.5,229.86c-.4,0-.77.05-1.13.16-.35.11-.53.33-.53.65s.17.52.51.63c.34.11.71.17,1.11.17s.79-.06,1.15-.18c.35-.12.53-.35.53-.68,0-.32-.18-.52-.55-.61s-.73-.14-1.09-.14ZM66.42,223.8c-.21,0-.41.06-.6.17s-.34.27-.45.47c-.11.19-.17.39-.17.6,0,.33.13.61.38.86s.54.37.86.37.62-.13.87-.39.38-.55.38-.88-.13-.61-.39-.85c-.26-.23-.55-.35-.88-.35Z"/>
    <path class="cls-1" d="M74.57,222.39c.69,0,1.26.12,1.72.36.46.24.82.55,1.09.95s.45.81.55,1.25.16.89.16,1.34h-4.9c.06.61.28,1.08.67,1.39.38.31.91.47,1.58.47.86,0,1.7-.31,2.53-.93v1.36c-.84.6-1.91.9-3.21.9-.74,0-1.39-.14-1.97-.43-.58-.29-1.03-.7-1.34-1.23-.32-.53-.47-1.15-.47-1.86s.16-1.32.48-1.86c.32-.54.75-.96,1.3-1.26.55-.3,1.15-.44,1.82-.44ZM74.7,223.69c-.4,0-.73.14-1,.42-.27.28-.43.63-.48,1.05h2.97c-.04-.42-.19-.76-.46-1.05-.27-.28-.61-.42-1.03-.42Z"/>
    <path class="cls-1" d="M80.59,226.92c.34,0,.64.13.89.38.25.25.38.54.38.88,0,.22-.06.43-.17.63s-.27.36-.46.48-.4.18-.62.18c-.34,0-.65-.12-.91-.37s-.39-.54-.39-.88.13-.65.39-.9c.26-.26.56-.39.9-.39ZM80.59,222.58c.34,0,.64.12.89.37.25.25.38.54.38.87s-.13.65-.38.91c-.26.26-.55.39-.89.39s-.64-.13-.89-.38-.38-.55-.38-.9.13-.64.38-.89c.25-.25.55-.38.89-.38Z"/>
    <path class="cls-1" d="M97.12,220.02v2.31c-.47-.34-1.01-.61-1.61-.81s-1.21-.29-1.82-.29-1.23.12-1.79.36-1.02.59-1.36,1.05-.52,1.02-.52,1.66.17,1.17.5,1.64c.33.47.78.83,1.32,1.09s1.13.38,1.74.38,1.21-.11,1.8-.33,1.21-.53,1.85-.91v2.32c-.53.26-.98.46-1.35.59-.37.13-.75.23-1.16.29-.4.06-.88.09-1.43.09-.77,0-1.51-.11-2.22-.34-.71-.23-1.34-.56-1.89-1-.55-.44-.99-.98-1.31-1.62-.32-.64-.48-1.36-.48-2.15s.16-1.54.48-2.2c.32-.65.76-1.21,1.33-1.66.57-.45,1.22-.8,1.96-1.03.74-.24,1.52-.35,2.35-.35,1.4,0,2.6.3,3.6.9Z"/>
    <path class="cls-1" d="M102.28,222.39c.69,0,1.26.12,1.72.36.46.24.82.55,1.09.95s.45.81.55,1.25c.11.44.16.89.16,1.34h-4.9c.06.61.28,1.08.67,1.39.38.31.91.47,1.58.47.86,0,1.7-.31,2.53-.93v1.36c-.84.6-1.91.9-3.21.9-.74,0-1.39-.14-1.97-.43-.58-.29-1.03-.7-1.34-1.23-.32-.53-.47-1.15-.47-1.86s.16-1.32.48-1.86c.32-.54.75-.96,1.3-1.26.55-.3,1.15-.44,1.82-.44ZM102.41,223.69c-.4,0-.73.14-1,.42-.27.28-.43.63-.48,1.05h2.97c-.04-.42-.19-.76-.46-1.05-.27-.28-.61-.42-1.03-.42Z"/>
    <path class="cls-1" d="M107.26,219.25h2.12v10.09h-2.12v-10.09Z"/>
    <path class="cls-1" d="M114.46,222.39c.69,0,1.26.12,1.72.36.46.24.83.55,1.09.95s.45.81.55,1.25c.11.44.16.89.16,1.34h-4.9c.06.61.28,1.08.67,1.39.38.31.91.47,1.58.47.86,0,1.7-.31,2.53-.93v1.36c-.84.6-1.91.9-3.21.9-.74,0-1.39-.14-1.97-.43-.58-.29-1.03-.7-1.34-1.23-.32-.53-.47-1.15-.47-1.86s.16-1.32.48-1.86.75-.96,1.3-1.26c.55-.3,1.16-.44,1.82-.44ZM114.59,223.69c-.4,0-.73.14-1,.42-.27.28-.43.63-.48,1.05h2.97c-.04-.42-.19-.76-.46-1.05-.27-.28-.61-.42-1.03-.42Z"/>
    <path class="cls-1" d="M119.37,219.25h2.12v3.67c.55-.35,1.12-.53,1.73-.53.71,0,1.31.16,1.82.47.5.31.88.73,1.14,1.27.26.54.38,1.13.38,1.79s-.13,1.29-.38,1.83c-.25.54-.62.96-1.11,1.27-.48.31-1.04.46-1.68.46s-1.3-.22-1.91-.65v.52h-2.12v-10.09ZM122.73,223.86c-.44,0-.86.15-1.25.46v3.15c.43.34.86.52,1.27.52.54,0,.95-.19,1.24-.58.29-.39.43-.88.43-1.49s-.15-1.11-.44-1.49c-.29-.38-.71-.57-1.26-.57Z"/>
    <path class="cls-1" d="M132.39,222.39c.42,0,.9.21,1.44.62l-.59,1.89c-.26-.18-.47-.31-.64-.38-.17-.08-.37-.12-.6-.12-.34,0-.64.14-.92.41-.27.27-.49.58-.65.93-.16.35-.24.62-.24.81v2.8h-2.12v-6.82h2.12v1.97c.09-.18.2-.39.34-.64.13-.25.28-.48.45-.7.17-.22.37-.4.61-.54s.51-.22.81-.22Z"/>
    <path class="cls-1" d="M137.56,222.39c1.92,0,2.88.72,2.88,2.16v2.93c0,.34.11.52.33.52.21,0,.49-.11.84-.33v1.18c-.69.42-1.38.62-2.04.62s-1.07-.25-1.19-.76c-.71.5-1.45.76-2.22.76-.35,0-.67-.08-.97-.23-.3-.15-.54-.36-.71-.63-.17-.27-.26-.58-.26-.92,0-.89.59-1.56,1.76-2.01l2.29-.72c0-.39-.09-.69-.26-.87s-.48-.28-.92-.28c-.85,0-1.69.38-2.52,1.14v-1.73c.49-.28.98-.49,1.45-.62.47-.14.98-.2,1.52-.2ZM138.28,226.05c-.45.17-.78.29-.99.39-.21.09-.41.23-.6.41-.19.18-.29.39-.29.64,0,.19.08.35.23.5.15.14.32.21.52.21.15,0,.33-.04.54-.13.22-.08.42-.21.59-.38v-1.64Z"/>
    <path class="cls-1" d="M144.64,220.38h.28v2.15h2.47v1.48h-2.47v2.37c0,.32.02.58.06.79.04.21.13.39.28.53s.38.21.7.21c.22,0,.41-.03.57-.08s.45-.16.87-.33v1.55c-.27.09-.49.16-.67.22s-.37.11-.58.14c-.2.04-.44.06-.72.06-.88,0-1.53-.23-1.97-.7-.44-.46-.65-1.12-.65-1.98v-2.79h-1.02v-.4l2.86-3.23Z"/>
    <path class="cls-1" d="M149.65,219.09c.34,0,.62.12.84.36.22.24.33.52.33.83s-.12.6-.36.82c-.24.22-.51.33-.83.33-.29,0-.56-.1-.81-.31-.25-.21-.37-.48-.37-.82s.12-.64.35-.88.52-.35.85-.35ZM148.53,222.52h2.11v6.82h-2.11v-6.82Z"/>
    <path class="cls-1" d="M156.86,222.39c.54,0,1,.12,1.38.35.38.23.66.55.84.95.19.4.28.85.28,1.35v4.31h-2.12v-4c0-.44-.07-.79-.22-1.06s-.43-.4-.86-.4c-.25,0-.49.07-.72.21-.23.14-.43.31-.58.5s-.22.37-.22.51v4.25h-2.12v-6.84h2.12v.99c.6-.75,1.34-1.12,2.22-1.12Z"/>
    <path class="cls-1" d="M163.8,222.52h4.13v1.42h-1.01c.13.22.22.41.28.57.05.16.08.35.08.58,0,.53-.14.97-.43,1.31-.29.34-.64.58-1.05.74-.41.15-.81.24-1.2.26-.04,0-.13,0-.27.02-.13,0-.27.03-.39.05s-.24.07-.33.14c-.09.07-.14.15-.14.26,0,.16.1.27.29.33s.52.11.97.15.8.09,1.05.15c.56.12,1.02.35,1.36.68.34.33.52.76.52,1.28,0,.57-.17,1.03-.51,1.37s-.77.58-1.3.71-1.1.2-1.7.2c-.95,0-1.8-.14-2.55-.41-.75-.27-1.13-.8-1.13-1.59,0-.32.09-.6.27-.83s.41-.42.68-.55c.28-.14.57-.23.88-.29v-.03c-.3-.14-.52-.26-.64-.36s-.19-.28-.19-.54c0-.5.41-.83,1.24-.99v-.03c-.56-.09-1.02-.33-1.38-.72s-.53-.86-.53-1.39.14-1,.42-1.38c.28-.37.65-.65,1.1-.83.46-.18.94-.27,1.45-.27ZM164.13,229.86c-.4,0-.77.05-1.13.16s-.53.33-.53.65.17.52.51.63c.34.11.71.17,1.12.17s.79-.06,1.15-.18c.35-.12.53-.35.53-.68,0-.32-.18-.52-.55-.61-.37-.09-.73-.14-1.09-.14ZM164.04,223.8c-.21,0-.41.06-.6.17-.19.12-.34.27-.45.47-.11.19-.17.39-.17.6,0,.33.13.61.38.86s.54.37.86.37.62-.13.87-.39c.25-.26.38-.55.38-.88s-.13-.61-.39-.85c-.26-.23-.55-.35-.88-.35Z"/>
    <path class="cls-1" d="M33.52,238.4c.77,0,1.54.14,2.31.43v1.6c-.5-.31-1.09-.46-1.76-.46-.39,0-.74.08-1.06.23-.32.16-.57.38-.76.68s-.28.65-.28,1.05c0,.38.08.72.25,1.03.17.31.41.55.71.73s.66.26,1.05.26c.2,0,.4-.02.61-.07.21-.05.42-.1.63-.17s.45-.15.72-.23v1.54c-.76.3-1.54.44-2.32.44-1.18,0-2.13-.31-2.85-.94-.72-.62-1.08-1.48-1.08-2.57,0-.72.17-1.35.52-1.89s.82-.96,1.4-1.24c.59-.29,1.23-.43,1.92-.43Z"/>
    <path class="cls-1" d="M37.39,238.52h2.12v3.86c0,.47.07.85.21,1.16.14.3.42.46.84.46.21,0,.43-.06.67-.19.24-.13.43-.28.59-.46s.24-.33.24-.46v-4.37h2.12v6.82h-2.12v-.98c-.31.36-.61.64-.92.83-.31.19-.73.28-1.27.28-.47,0-.89-.1-1.26-.3-.37-.2-.67-.48-.89-.85-.22-.37-.32-.79-.32-1.28v-4.53Z"/>
    <path class="cls-1" d="M46.06,235.25h2.12v10.09h-2.12v-10.09Z"/>
    <path class="cls-1" d="M52.15,236.38h.28v2.15h2.47v1.48h-2.47v2.37c0,.32.02.58.06.79.04.21.13.39.28.53s.38.21.7.21c.22,0,.41-.03.57-.08.16-.05.45-.16.87-.33v1.55c-.27.09-.49.16-.67.22-.18.06-.37.11-.58.14-.2.04-.44.06-.72.06-.87,0-1.53-.23-1.97-.7s-.65-1.12-.65-1.98v-2.79h-1.02v-.4l2.86-3.23Z"/>
    <path class="cls-1" d="M56.04,238.52h2.12v3.86c0,.47.07.85.21,1.16.14.3.42.46.84.46.21,0,.43-.06.67-.19.24-.13.43-.28.59-.46s.24-.33.24-.46v-4.37h2.12v6.82h-2.12v-.98c-.31.36-.61.64-.92.83-.31.19-.73.28-1.27.28-.47,0-.89-.1-1.26-.3-.37-.2-.67-.48-.89-.85-.22-.37-.32-.79-.32-1.28v-4.53Z"/>
    <path class="cls-1" d="M69.03,238.39c.42,0,.9.21,1.44.62l-.59,1.89c-.26-.18-.47-.31-.64-.38-.17-.08-.37-.12-.6-.12-.34,0-.64.14-.92.41-.27.27-.49.58-.65.93-.16.35-.24.62-.24.81v2.8h-2.12v-6.82h2.12v1.97c.09-.18.2-.39.34-.64.13-.25.28-.48.45-.7.17-.22.37-.4.61-.54s.51-.22.81-.22Z"/>
    <path class="cls-1" d="M74.2,238.39c1.92,0,2.88.72,2.88,2.16v2.93c0,.34.11.52.33.52.21,0,.49-.11.84-.33v1.18c-.69.42-1.37.62-2.04.62s-1.07-.25-1.19-.76c-.71.5-1.45.76-2.22.76-.35,0-.67-.08-.97-.23-.3-.15-.54-.36-.71-.63s-.26-.58-.26-.92c0-.89.59-1.56,1.76-2.01l2.29-.72c0-.39-.09-.69-.26-.87-.17-.19-.48-.28-.92-.28-.85,0-1.69.38-2.52,1.14v-1.73c.49-.28.98-.49,1.45-.62.47-.14.98-.2,1.52-.2ZM74.92,242.05c-.45.17-.78.29-.99.39-.21.09-.41.23-.6.41-.19.18-.29.39-.29.64,0,.19.08.35.23.5.15.14.32.21.52.21.15,0,.33-.04.55-.13.22-.08.41-.21.59-.38v-1.64Z"/>
    <path class="cls-1" d="M79.2,235.25h2.12v10.09h-2.12v-10.09Z"/>
    <path class="cls-1" d="M87.31,235.25h2.12v4.29c.33-.39.66-.68.99-.87.33-.19.74-.29,1.21-.29.51,0,.95.12,1.32.36.38.24.66.57.85.97.19.41.29.85.29,1.33v4.29h-2.12v-3.82c0-1.05-.36-1.57-1.08-1.57-.19,0-.41.06-.64.19s-.43.28-.59.46c-.16.18-.24.36-.24.54v4.2h-2.12v-10.09Z"/>
    <path class="cls-1" d="M99.14,238.39c.69,0,1.26.12,1.72.36.46.24.83.55,1.09.95s.45.81.55,1.25c.11.44.16.89.16,1.34h-4.9c.06.61.28,1.08.67,1.39.38.31.91.47,1.58.47.86,0,1.7-.31,2.53-.93v1.36c-.84.6-1.91.9-3.21.9-.74,0-1.39-.14-1.97-.43-.58-.29-1.03-.7-1.34-1.23-.32-.53-.47-1.15-.47-1.86s.16-1.32.48-1.86.75-.96,1.3-1.26c.55-.3,1.16-.44,1.82-.44ZM99.27,239.69c-.4,0-.73.14-1,.42-.27.28-.43.63-.48,1.05h2.97c-.04-.42-.19-.76-.46-1.05-.27-.28-.61-.42-1.03-.42Z"/>
    <path class="cls-1" d="M108.45,238.39c.42,0,.9.21,1.44.62l-.59,1.89c-.26-.18-.47-.31-.64-.38-.17-.08-.37-.12-.6-.12-.34,0-.64.14-.92.41-.27.27-.49.58-.65.93-.16.35-.24.62-.24.81v2.8h-2.12v-6.82h2.12v1.97c.09-.18.2-.39.34-.64.13-.25.28-.48.45-.7s.37-.4.61-.54.51-.22.81-.22Z"/>
    <path class="cls-1" d="M111.84,235.09c.34,0,.62.12.84.36.22.24.33.52.33.83s-.12.6-.36.82c-.24.22-.51.33-.83.33-.29,0-.56-.1-.81-.31-.25-.21-.37-.48-.37-.82s.12-.64.35-.88.52-.35.85-.35ZM110.72,238.52h2.11v6.82h-2.11v-6.82Z"/>
    <path class="cls-1" d="M116.84,236.38h.28v2.15h2.47v1.48h-2.47v2.37c0,.32.02.58.06.79.04.21.13.39.28.53s.38.21.7.21c.22,0,.42-.03.57-.08.16-.05.45-.16.87-.33v1.55c-.27.09-.49.16-.67.22-.18.06-.37.11-.58.14-.2.04-.44.06-.72.06-.87,0-1.53-.23-1.97-.7-.44-.46-.65-1.12-.65-1.98v-2.79h-1.02v-.4l2.86-3.23Z"/>
    <path class="cls-1" d="M123.63,238.39c1.92,0,2.88.72,2.88,2.16v2.93c0,.34.11.52.33.52.21,0,.49-.11.84-.33v1.18c-.69.42-1.38.62-2.04.62s-1.07-.25-1.19-.76c-.71.5-1.45.76-2.22.76-.35,0-.67-.08-.97-.23-.3-.15-.54-.36-.71-.63-.17-.27-.26-.58-.26-.92,0-.89.59-1.56,1.76-2.01l2.29-.72c0-.39-.09-.69-.26-.87s-.48-.28-.92-.28c-.85,0-1.69.38-2.52,1.14v-1.73c.49-.28.98-.49,1.45-.62.47-.14.98-.2,1.52-.2ZM124.36,242.05c-.45.17-.78.29-.99.39-.21.09-.41.23-.6.41-.19.18-.29.39-.29.64,0,.19.08.35.23.5.15.14.32.21.52.21.15,0,.33-.04.54-.13.22-.08.42-.21.59-.38v-1.64Z"/>
    <path class="cls-1" d="M131.23,238.52h4.13v1.42h-1.01c.13.22.22.41.28.57.05.16.08.35.08.58,0,.53-.15.97-.44,1.31-.29.34-.64.58-1.05.74-.41.15-.81.24-1.2.26-.04,0-.13,0-.27.02-.13,0-.27.03-.39.05-.13.03-.24.07-.33.14-.09.07-.14.15-.14.26,0,.16.1.27.29.33s.52.11.97.15c.45.04.8.09,1.05.15.56.12,1.02.35,1.36.68s.52.76.52,1.28c0,.57-.17,1.03-.51,1.37s-.77.58-1.3.71-1.1.2-1.7.2c-.95,0-1.8-.14-2.55-.41-.75-.27-1.13-.8-1.13-1.59,0-.32.09-.6.27-.83.18-.23.41-.42.68-.55.28-.14.57-.23.88-.29v-.03c-.3-.14-.52-.26-.64-.36s-.19-.28-.19-.54c0-.5.41-.83,1.24-.99v-.03c-.56-.09-1.02-.33-1.37-.72-.36-.39-.53-.86-.53-1.39s.14-1,.42-1.38c.28-.37.65-.65,1.1-.83.46-.18.94-.27,1.45-.27ZM131.55,245.86c-.4,0-.77.05-1.13.16-.35.11-.53.33-.53.65s.17.52.51.63c.34.11.71.17,1.11.17s.79-.06,1.15-.18.53-.35.53-.68c0-.32-.18-.52-.55-.61-.37-.09-.73-.14-1.09-.14ZM131.46,239.8c-.21,0-.41.06-.6.17-.19.12-.34.27-.45.47-.11.19-.17.39-.17.6,0,.33.13.61.38.86s.54.37.86.37.62-.13.87-.39c.25-.26.38-.55.38-.88s-.13-.61-.39-.85c-.26-.23-.55-.35-.88-.35Z"/>
    <path class="cls-1" d="M139.62,238.39c.69,0,1.26.12,1.72.36.46.24.83.55,1.09.95s.45.81.55,1.25c.11.44.16.89.16,1.34h-4.9c.06.61.28,1.08.67,1.39.38.31.91.47,1.58.47.86,0,1.7-.31,2.53-.93v1.36c-.84.6-1.91.9-3.21.9-.74,0-1.39-.14-1.97-.43-.58-.29-1.03-.7-1.34-1.23-.32-.53-.47-1.15-.47-1.86s.16-1.32.48-1.86.75-.96,1.3-1.26c.55-.3,1.16-.44,1.82-.44ZM139.75,239.69c-.4,0-.73.14-1,.42-.27.28-.43.63-.48,1.05h2.97c-.04-.42-.19-.76-.46-1.05-.27-.28-.61-.42-1.03-.42Z"/>
  </g>
</svg>